solid OpenSCAD_Model
  facet normal 0 0 -1
    outer loop
      vertex 0.78035 -14.9231 0
      vertex 2.22227 -14.3259 0
      vertex 1.88557 -14.5277 0
    endloop
  endfacet
  facet normal 0 0 -1
    outer loop
      vertex 0.78035 -14.9231 0
      vertex 1.88557 -14.5277 0
      vertex 1.53073 -14.6955 0
    endloop
  endfacet
  facet normal 0 0 -1
    outer loop
      vertex 0.78035 -14.9231 0
      vertex 1.53073 -14.6955 0
      vertex 1.16113 -14.8278 0
    endloop
  endfacet
  facet normal 0 0 -1
    outer loop
      vertex 2.82841 -13.8284 0
      vertex 2.22227 -14.3259 0
      vertex 0.78035 -14.9231 0
    endloop
  endfacet
  facet normal 0 0 -1
    outer loop
      vertex 2.82841 -13.8284 0
      vertex 2.53757 -14.092 0
      vertex 2.22227 -14.3259 0
    endloop
  endfacet
  facet normal 0 0 -1
    outer loop
      vertex 3.32587 -13.2223 0
      vertex 3.92313 -11.7803 0
      vertex 3.52768 -12.8856 0
    endloop
  endfacet
  facet normal -0 0 -1
    outer loop
      vertex 3.32587 -13.2223 0
      vertex 2.82841 -13.8284 0
      vertex 3.92313 -11.7803 0
    endloop
  endfacet
  facet normal 0 0 -1
    outer loop
      vertex 2.82841 -13.8284 0
      vertex 3.32587 -13.2223 0
      vertex 3.09204 -13.5376 0
    endloop
  endfacet
  facet normal 0 0 -1
    outer loop
      vertex 3.69551 -12.5307 0
      vertex 3.92313 -11.7803 0
      vertex 3.82776 -12.1611 0
    endloop
  endfacet
  facet normal -0 0 -1
    outer loop
      vertex 3.69551 -12.5307 0
      vertex 3.52768 -12.8856 0
      vertex 3.92313 -11.7803 0
    endloop
  endfacet
  facet normal 0 0 -1
    outer loop
      vertex 3.92313 -11.7803 0
      vertex -3.92313 -11.7803 0
      vertex -3.92313 -10.2196 0
    endloop
  endfacet
  facet normal -0 0 -1
    outer loop
      vertex 3.98073 -11.3921 0
      vertex 3.92313 -11.7803 0
      vertex 3.92313 -10.2196 0
    endloop
  endfacet
  facet normal -0 -0 -1
    outer loop
      vertex 3.98073 -10.6079 0
      vertex 3.98073 -11.3921 0
      vertex 3.92313 -10.2196 0
    endloop
  endfacet
  facet normal -0 -0 -1
    outer loop
      vertex 3.92313 -10.2196 0
      vertex 3.92313 -11.7803 0
      vertex -3.92313 -10.2196 0
    endloop
  endfacet
  facet normal 0 0 -1
    outer loop
      vertex 3.98073 -11.3921 0
      vertex 3.98073 -10.6079 0
      vertex 4 -11 0
    endloop
  endfacet
  facet normal -0 0 -1
    outer loop
      vertex 3.92313 -11.7803 0
      vertex 2.82841 -13.8284 0
      vertex -3.92313 -11.7803 0
    endloop
  endfacet
  facet normal 0 0 -1
    outer loop
      vertex -3.98073 -10.6079 0
      vertex -3.92313 -11.7803 0
      vertex -3.98073 -11.3921 0
    endloop
  endfacet
  facet normal 0 0 -1
    outer loop
      vertex 1.06812 -5.3698 0
      vertex 1.58929 -5.23924 0
      vertex 3.2648 -6.7148 0
    endloop
  endfacet
  facet normal 0 -0 -1
    outer loop
      vertex 6.21523 4.15288 0
      vertex 6.59236 3.52368 0
      vertex 4.64999 2.89017 0
    endloop
  endfacet
  facet normal 0 0 -1
    outer loop
      vertex 6.90599 -2.86055 0
      vertex 4.82851 -2.58089 0
      vertex 5.05823 -2.09518 0
    endloop
  endfacet
  facet normal -0 0 -1
    outer loop
      vertex 7.15312 -2.16988 0
      vertex 6.90599 -2.86055 0
      vertex 5.23924 -1.58929 0
    endloop
  endfacet
  facet normal -0 0 -1
    outer loop
      vertex 7.33136 -1.4583 0
      vertex 5.23924 -1.58929 0
      vertex 5.3698 -1.06812 0
    endloop
  endfacet
  facet normal -0 0 -1
    outer loop
      vertex 7.439 -0.732666 0
      vertex 5.3698 -1.06812 0
      vertex 5.44862 -0.536636 0
    endloop
  endfacet
  facet normal -0 0 -1
    outer loop
      vertex 7.47499 0 0
      vertex 7.439 -0.732666 0
      vertex 5.47499 0 0
    endloop
  endfacet
  facet normal 0 0 -1
    outer loop
      vertex 7.439 0.732666 0
      vertex 5.47499 0 0
      vertex 5.44862 0.536636 0
    endloop
  endfacet
  facet normal 0 -0 -1
    outer loop
      vertex 7.33136 1.4583 0
      vertex 7.439 0.732666 0
      vertex 5.3698 1.06812 0
    endloop
  endfacet
  facet normal 0 0 -1
    outer loop
      vertex 5.23924 1.58929 0
      vertex 7.33136 1.4583 0
      vertex 5.3698 1.06812 0
    endloop
  endfacet
  facet normal 0 0 -1
    outer loop
      vertex 5.23924 1.58929 0
      vertex 7.15312 2.16988 0
      vertex 7.33136 1.4583 0
    endloop
  endfacet
  facet normal 0 0 -1
    outer loop
      vertex 5.23924 1.58929 0
      vertex 6.90599 2.86055 0
      vertex 7.15312 2.16988 0
    endloop
  endfacet
  facet normal 0 0 -1
    outer loop
      vertex 5.23924 1.58929 0
      vertex 5.05823 2.09518 0
      vertex 6.90599 2.86055 0
    endloop
  endfacet
  facet normal 0 0 -1
    outer loop
      vertex 6.90599 2.86055 0
      vertex 5.05823 2.09518 0
      vertex 4.82851 2.58089 0
    endloop
  endfacet
  facet normal 0 -0 -1
    outer loop
      vertex 6.59236 3.52368 0
      vertex 6.90599 2.86055 0
      vertex 4.82851 2.58089 0
    endloop
  endfacet
  facet normal 0 0 -1
    outer loop
      vertex 4.64999 2.89017 0
      vertex 6.59236 3.52368 0
      vertex 4.82851 2.58089 0
    endloop
  endfacet
  facet normal 0 -0 -1
    outer loop
      vertex 5.77824 4.74208 0
      vertex 6.21523 4.15288 0
      vertex 4.64999 2.89017 0
    endloop
  endfacet
  facet normal 0 -0 -1
    outer loop
      vertex 5.43056 5.1257 0
      vertex 5.77824 4.74208 0
      vertex 4.64999 2.89017 0
    endloop
  endfacet
  facet normal -0 -0 -1
    outer loop
      vertex 4.64999 2.89017 0
      vertex 4.82851 2.58089 0
      vertex 4.64313 2.89017 0
    endloop
  endfacet
  facet normal -0 0 -1
    outer loop
      vertex 6.59236 -3.52368 0
      vertex 6.21523 -4.15288 0
      vertex 4.82851 -2.58089 0
    endloop
  endfacet
  facet normal 0 -0 -1
    outer loop
      vertex 3.04173 -4.55229 0
      vertex 4.15288 -6.21523 0
      vertex 2.58089 -4.82851 0
    endloop
  endfacet
  facet normal 0 0 -1
    outer loop
      vertex 3.2648 -6.7148 0
      vertex 2.09518 -5.05823 0
      vertex 2.58089 -4.82851 0
    endloop
  endfacet
  facet normal 0 0 -1
    outer loop
      vertex 5.3698 1.06812 0
      vertex 7.439 0.732666 0
      vertex 5.44862 0.536636 0
    endloop
  endfacet
  facet normal 0 -0 -1
    outer loop
      vertex 7.439 0.732666 0
      vertex 7.47499 0 0
      vertex 5.47499 0 0
    endloop
  endfacet
  facet normal 0 -0 -1
    outer loop
      vertex 5.47499 0 0
      vertex 7.439 -0.732666 0
      vertex 5.44862 -0.536636 0
    endloop
  endfacet
  facet normal 0 0 -1
    outer loop
      vertex 7.439 -0.732666 0
      vertex 7.33136 -1.4583 0
      vertex 5.3698 -1.06812 0
    endloop
  endfacet
  facet normal 0 0 -1
    outer loop
      vertex 7.33136 -1.4583 0
      vertex 7.15312 -2.16988 0
      vertex 5.23924 -1.58929 0
    endloop
  endfacet
  facet normal 0 -0 -1
    outer loop
      vertex 5.23924 -1.58929 0
      vertex 6.90599 -2.86055 0
      vertex 5.05823 -2.09518 0
    endloop
  endfacet
  facet normal -0 0 -1
    outer loop
      vertex 6.90599 -2.86055 0
      vertex 6.59236 -3.52368 0
      vertex 4.82851 -2.58089 0
    endloop
  endfacet
  facet normal 0 -0 -1
    outer loop
      vertex 4.82851 -2.58089 0
      vertex 6.21523 -4.15288 0
      vertex 4.55229 -3.04173 0
    endloop
  endfacet
  facet normal 0 0 -1
    outer loop
      vertex 4.23222 -3.4733 0
      vertex 6.21523 -4.15288 0
      vertex 5.77824 -4.74208 0
    endloop
  endfacet
  facet normal 0 -0 -1
    outer loop
      vertex 4.55229 -3.04173 0
      vertex 6.21523 -4.15288 0
      vertex 4.23222 -3.4733 0
    endloop
  endfacet
  facet normal 0 0 -1
    outer loop
      vertex 3.8714 -3.8714 0
      vertex 4.23222 -3.4733 0
      vertex 5.28561 -5.28561 0
    endloop
  endfacet
  facet normal 0 0 -1
    outer loop
      vertex 4.23222 -3.4733 0
      vertex 5.77824 -4.74208 0
      vertex 5.28561 -5.28561 0
    endloop
  endfacet
  facet normal 0 -0 -1
    outer loop
      vertex 3.8714 -3.8714 0
      vertex 5.28561 -5.28561 0
      vertex 3.4733 -4.23222 0
    endloop
  endfacet
  facet normal 0 0 -1
    outer loop
      vertex 3.4733 -4.23222 0
      vertex 5.28561 -5.28561 0
      vertex 4.74208 -5.77824 0
    endloop
  endfacet
  facet normal 0 0 -1
    outer loop
      vertex 4.15288 -6.21523 0
      vertex 3.4733 -4.23222 0
      vertex 4.74208 -5.77824 0
    endloop
  endfacet
  facet normal 0 0 -1
    outer loop
      vertex 4.15288 -6.21523 0
      vertex 3.04173 -4.55229 0
      vertex 3.4733 -4.23222 0
    endloop
  endfacet
  facet normal 0 0 -1
    outer loop
      vertex 3.52368 -6.59236 0
      vertex 2.58089 -4.82851 0
      vertex 4.15288 -6.21523 0
    endloop
  endfacet
  facet normal -0 0 -1
    outer loop
      vertex 3.52368 -6.59236 0
      vertex 3.2648 -6.7148 0
      vertex 2.58089 -4.82851 0
    endloop
  endfacet
  facet normal 0 0 -1
    outer loop
      vertex 3.2648 -6.7148 0
      vertex 1.58929 -5.23924 0
      vertex 2.09518 -5.05823 0
    endloop
  endfacet
  facet normal 0 0 -1
    outer loop
      vertex 0.536636 -5.44862 0
      vertex 1.06812 -5.3698 0
      vertex 3.2648 -6.7148 0
    endloop
  endfacet
  facet normal 0 0 -1
    outer loop
      vertex 3.92313 -10.2196 0
      vertex 0.536636 -5.44862 0
      vertex 3.2648 -6.7148 0
    endloop
  endfacet
  facet normal 0 0 -1
    outer loop
      vertex 3.92313 -10.2196 0
      vertex 0 -5.47499 0
      vertex 0.536636 -5.44862 0
    endloop
  endfacet
  facet normal 0 -0 -1
    outer loop
      vertex -3.2648 -6.7148 0
      vertex -0.536636 -5.44862 0
      vertex -3.92313 -10.2196 0
    endloop
  endfacet
  facet normal 0 -0 -1
    outer loop
      vertex -2.09518 -5.05823 0
      vertex -1.58929 -5.23924 0
      vertex -3.2648 -6.7148 0
    endloop
  endfacet
  facet normal 0 0 -1
    outer loop
      vertex -2.58089 -4.82851 0
      vertex -3.2648 -6.7148 0
      vertex -3.52368 -6.59236 0
    endloop
  endfacet
  facet normal 0 -0 -1
    outer loop
      vertex -3.04173 -4.55229 0
      vertex -2.58089 -4.82851 0
      vertex -4.15288 -6.21523 0
    endloop
  endfacet
  facet normal 0 0 -1
    outer loop
      vertex -3.4733 -4.23222 0
      vertex -4.15288 -6.21523 0
      vertex -4.74208 -5.77824 0
    endloop
  endfacet
  facet normal 0 -0 -1
    outer loop
      vertex -3.8714 -3.8714 0
      vertex -3.4733 -4.23222 0
      vertex -5.28561 -5.28561 0
    endloop
  endfacet
  facet normal 0 0 -1
    outer loop
      vertex -4.23222 -3.4733 0
      vertex -5.77824 -4.74208 0
      vertex -6.21523 -4.15288 0
    endloop
  endfacet
  facet normal -0 0 -1
    outer loop
      vertex -4.55229 -3.04173 0
      vertex -6.21523 -4.15288 0
      vertex -4.82851 -2.58089 0
    endloop
  endfacet
  facet normal 0 0 -1
    outer loop
      vertex -4.82851 -2.58089 0
      vertex -6.59236 -3.52368 0
      vertex -6.90599 -2.86055 0
    endloop
  endfacet
  facet normal 0 0 -1
    outer loop
      vertex -6.90599 -2.86055 0
      vertex -7.15312 -2.16988 0
      vertex -5.23924 -1.58929 0
    endloop
  endfacet
  facet normal 0 0 -1
    outer loop
      vertex -5.23924 -1.58929 0
      vertex -7.33136 -1.4583 0
      vertex -5.3698 -1.06812 0
    endloop
  endfacet
  facet normal 0 0 -1
    outer loop
      vertex -5.3698 -1.06812 0
      vertex -7.439 -0.732666 0
      vertex -5.44862 -0.536636 0
    endloop
  endfacet
  facet normal -0 0 -1
    outer loop
      vertex -5.44862 -0.536636 0
      vertex -7.439 -0.732666 0
      vertex -5.47499 0 0
    endloop
  endfacet
  facet normal 0 0 -1
    outer loop
      vertex -5.47499 0 0
      vertex -7.47499 0 0
      vertex -7.439 0.732666 0
    endloop
  endfacet
  facet normal 0 0 -1
    outer loop
      vertex -5.44862 0.536636 0
      vertex -7.439 0.732666 0
      vertex -5.3698 1.06812 0
    endloop
  endfacet
  facet normal 0 0 -1
    outer loop
      vertex -5.3698 1.06812 0
      vertex -7.33136 1.4583 0
      vertex -5.23924 1.58929 0
    endloop
  endfacet
  facet normal 0 0 -1
    outer loop
      vertex -5.23924 1.58929 0
      vertex -7.15312 2.16988 0
      vertex -6.90599 2.86055 0
    endloop
  endfacet
  facet normal 0 0 -1
    outer loop
      vertex -5.05823 2.09518 0
      vertex -6.90599 2.86055 0
      vertex -4.82851 2.58089 0
    endloop
  endfacet
  facet normal 0 0 -1
    outer loop
      vertex -4.82851 2.58089 0
      vertex -6.90599 2.86055 0
      vertex -6.59236 3.52368 0
    endloop
  endfacet
  facet normal -0 0 -1
    outer loop
      vertex -4.64999 2.89017 0
      vertex -4.82851 2.58089 0
      vertex -6.59236 3.52368 0
    endloop
  endfacet
  facet normal 0 -0 -1
    outer loop
      vertex -6.21523 4.15288 0
      vertex -4.64999 2.89017 0
      vertex -6.59236 3.52368 0
    endloop
  endfacet
  facet normal 0 0 -1
    outer loop
      vertex -6.21523 4.15288 0
      vertex -5.77824 4.74208 0
      vertex -4.64999 2.89017 0
    endloop
  endfacet
  facet normal -0 0 -1
    outer loop
      vertex -4.64313 2.89017 0
      vertex -4.82851 2.58089 0
      vertex -4.64999 2.89017 0
    endloop
  endfacet
  facet normal 0 0 -1
    outer loop
      vertex -4.64999 2.89017 0
      vertex -5.77824 4.74208 0
      vertex -5.43056 5.1257 0
    endloop
  endfacet
  facet normal -0 0 -1
    outer loop
      vertex -5.05823 2.09518 0
      vertex -5.23924 1.58929 0
      vertex -6.90599 2.86055 0
    endloop
  endfacet
  facet normal -0 0 -1
    outer loop
      vertex -5.23924 1.58929 0
      vertex -7.33136 1.4583 0
      vertex -7.15312 2.16988 0
    endloop
  endfacet
  facet normal -0 0 -1
    outer loop
      vertex -5.3698 1.06812 0
      vertex -7.439 0.732666 0
      vertex -7.33136 1.4583 0
    endloop
  endfacet
  facet normal -0 0 -1
    outer loop
      vertex -5.44862 0.536636 0
      vertex -5.47499 0 0
      vertex -7.439 0.732666 0
    endloop
  endfacet
  facet normal -0 0 -1
    outer loop
      vertex -5.47499 0 0
      vertex -7.439 -0.732666 0
      vertex -7.47499 0 0
    endloop
  endfacet
  facet normal -0 0 -1
    outer loop
      vertex -5.3698 -1.06812 0
      vertex -7.33136 -1.4583 0
      vertex -7.439 -0.732666 0
    endloop
  endfacet
  facet normal -0 0 -1
    outer loop
      vertex -5.23924 -1.58929 0
      vertex -7.15312 -2.16988 0
      vertex -7.33136 -1.4583 0
    endloop
  endfacet
  facet normal -0 0 -1
    outer loop
      vertex -5.05823 -2.09518 0
      vertex -6.90599 -2.86055 0
      vertex -5.23924 -1.58929 0
    endloop
  endfacet
  facet normal 0 -0 -1
    outer loop
      vertex -5.05823 -2.09518 0
      vertex -4.82851 -2.58089 0
      vertex -6.90599 -2.86055 0
    endloop
  endfacet
  facet normal 0 0 -1
    outer loop
      vertex -4.82851 -2.58089 0
      vertex -6.21523 -4.15288 0
      vertex -6.59236 -3.52368 0
    endloop
  endfacet
  facet normal 0 -0 -1
    outer loop
      vertex -4.55229 -3.04173 0
      vertex -4.23222 -3.4733 0
      vertex -6.21523 -4.15288 0
    endloop
  endfacet
  facet normal 0 0 -1
    outer loop
      vertex -4.23222 -3.4733 0
      vertex -5.28561 -5.28561 0
      vertex -5.77824 -4.74208 0
    endloop
  endfacet
  facet normal 0 0 -1
    outer loop
      vertex 3.92313 -10.2196 0
      vertex -3.92313 -10.2196 0
      vertex 0 -5.47499 0
    endloop
  endfacet
  facet normal 0 0 -1
    outer loop
      vertex -3.98073 -10.6079 0
      vertex -3.92313 -10.2196 0
      vertex -3.92313 -11.7803 0
    endloop
  endfacet
  facet normal 0 -0 -1
    outer loop
      vertex -4.23222 -3.4733 0
      vertex -3.8714 -3.8714 0
      vertex -5.28561 -5.28561 0
    endloop
  endfacet
  facet normal 0 0 -1
    outer loop
      vertex -5.28561 -5.28561 0
      vertex -3.4733 -4.23222 0
      vertex -4.74208 -5.77824 0
    endloop
  endfacet
  facet normal 0 -0 -1
    outer loop
      vertex -3.4733 -4.23222 0
      vertex -3.04173 -4.55229 0
      vertex -4.15288 -6.21523 0
    endloop
  endfacet
  facet normal 0 0 -1
    outer loop
      vertex -4.15288 -6.21523 0
      vertex -2.58089 -4.82851 0
      vertex -3.52368 -6.59236 0
    endloop
  endfacet
  facet normal 0 -0 -1
    outer loop
      vertex -2.58089 -4.82851 0
      vertex -2.09518 -5.05823 0
      vertex -3.2648 -6.7148 0
    endloop
  endfacet
  facet normal 0 0 -1
    outer loop
      vertex -3.2648 -6.7148 0
      vertex -1.58929 -5.23924 0
      vertex -1.06812 -5.3698 0
    endloop
  endfacet
  facet normal 0 0 -1
    outer loop
      vertex -3.92313 -10.2196 0
      vertex -0.536636 -5.44862 0
      vertex 0 -5.47499 0
    endloop
  endfacet
  facet normal 0 0 -1
    outer loop
      vertex -3.2648 -6.7148 0
      vertex -1.06812 -5.3698 0
      vertex -0.536636 -5.44862 0
    endloop
  endfacet
  facet normal 0 0 -1
    outer loop
      vertex -3.98073 -11.3921 0
      vertex -4 -11 0
      vertex -3.98073 -10.6079 0
    endloop
  endfacet
  facet normal 0 0 -1
    outer loop
      vertex -3.92313 -11.7803 0
      vertex 2.82841 -13.8284 0
      vertex -2.82841 -13.8284 0
    endloop
  endfacet
  facet normal 0 0 -1
    outer loop
      vertex -3.69551 -12.5307 0
      vertex -3.92313 -11.7803 0
      vertex -3.52768 -12.8856 0
    endloop
  endfacet
  facet normal 0 0 -1
    outer loop
      vertex -3.52768 -12.8856 0
      vertex -3.92313 -11.7803 0
      vertex -3.32587 -13.2223 0
    endloop
  endfacet
  facet normal 0 0 -1
    outer loop
      vertex -3.92313 -11.7803 0
      vertex -3.69551 -12.5307 0
      vertex -3.82776 -12.1611 0
    endloop
  endfacet
  facet normal 0 0 -1
    outer loop
      vertex -3.32587 -13.2223 0
      vertex -3.92313 -11.7803 0
      vertex -2.82841 -13.8284 0
    endloop
  endfacet
  facet normal 0 0 -1
    outer loop
      vertex -2.82841 -13.8284 0
      vertex 2.82841 -13.8284 0
      vertex 0.78035 -14.9231 0
    endloop
  endfacet
  facet normal 0 0 -1
    outer loop
      vertex -2.82841 -13.8284 0
      vertex -3.09204 -13.5376 0
      vertex -3.32587 -13.2223 0
    endloop
  endfacet
  facet normal 0 0 -1
    outer loop
      vertex -2.22227 -14.3259 0
      vertex -2.82841 -13.8284 0
      vertex -0.78035 -14.9231 0
    endloop
  endfacet
  facet normal 0 0 -1
    outer loop
      vertex -1.88557 -14.5277 0
      vertex -2.22227 -14.3259 0
      vertex -0.78035 -14.9231 0
    endloop
  endfacet
  facet normal 0 0 -1
    outer loop
      vertex -2.82841 -13.8284 0
      vertex -2.22227 -14.3259 0
      vertex -2.53757 -14.092 0
    endloop
  endfacet
  facet normal 0 0 -1
    outer loop
      vertex -1.53073 -14.6955 0
      vertex -1.88557 -14.5277 0
      vertex -0.78035 -14.9231 0
    endloop
  endfacet
  facet normal 0 0 -1
    outer loop
      vertex -0.78035 -14.9231 0
      vertex -2.82841 -13.8284 0
      vertex 0.78035 -14.9231 0
    endloop
  endfacet
  facet normal 0 0 -1
    outer loop
      vertex -0.78035 -14.9231 0
      vertex -1.16113 -14.8278 0
      vertex -1.53073 -14.6955 0
    endloop
  endfacet
  facet normal 0 0 -1
    outer loop
      vertex 0.392059 -14.9807 0
      vertex -0.78035 -14.9231 0
      vertex 0.78035 -14.9231 0
    endloop
  endfacet
  facet normal 0 0 -1
    outer loop
      vertex 0.392059 -14.9807 0
      vertex -0.392059 -14.9807 0
      vertex -0.78035 -14.9231 0
    endloop
  endfacet
  facet normal -0 0 -1
    outer loop
      vertex 0.392059 -14.9807 0
      vertex 0 -15 0
      vertex -0.392059 -14.9807 0
    endloop
  endfacet
  facet normal 0 -0 1
    outer loop
      vertex 1.88557 -14.5277 7.35
      vertex 2.22227 -14.3259 7.35
      vertex 0.78035 -14.9231 7.35
    endloop
  endfacet
  facet normal 0 -0 1
    outer loop
      vertex 1.53073 -14.6955 7.35
      vertex 1.88557 -14.5277 7.35
      vertex 0.78035 -14.9231 7.35
    endloop
  endfacet
  facet normal 0 -0 1
    outer loop
      vertex 1.16113 -14.8278 7.35
      vertex 1.53073 -14.6955 7.35
      vertex 0.78035 -14.9231 7.35
    endloop
  endfacet
  facet normal 0 0 1
    outer loop
      vertex 0.78035 -14.9231 7.35
      vertex 2.22227 -14.3259 7.35
      vertex 2.82841 -13.8284 7.35
    endloop
  endfacet
  facet normal 0 0 1
    outer loop
      vertex 2.22227 -14.3259 7.35
      vertex 2.53757 -14.092 7.35
      vertex 2.82841 -13.8284 7.35
    endloop
  endfacet
  facet normal 0 -0 1
    outer loop
      vertex 3.52768 -12.8856 7.35
      vertex 3.92313 -11.7803 7.35
      vertex 3.32587 -13.2223 7.35
    endloop
  endfacet
  facet normal 0 0 1
    outer loop
      vertex 3.92313 -11.7803 7.35
      vertex 2.82841 -13.8284 7.35
      vertex 3.32587 -13.2223 7.35
    endloop
  endfacet
  facet normal 0 -0 1
    outer loop
      vertex 3.09204 -13.5376 7.35
      vertex 3.32587 -13.2223 7.35
      vertex 2.82841 -13.8284 7.35
    endloop
  endfacet
  facet normal 0 -0 1
    outer loop
      vertex 3.82776 -12.1611 7.35
      vertex 3.92313 -11.7803 7.35
      vertex 3.69551 -12.5307 7.35
    endloop
  endfacet
  facet normal 0 0 1
    outer loop
      vertex 3.92313 -11.7803 7.35
      vertex 3.52768 -12.8856 7.35
      vertex 3.69551 -12.5307 7.35
    endloop
  endfacet
  facet normal 0 0 1
    outer loop
      vertex -3.92313 -10.2196 7.35
      vertex -3.92313 -11.7803 7.35
      vertex 3.92313 -11.7803 7.35
    endloop
  endfacet
  facet normal 0 0 1
    outer loop
      vertex 3.92313 -10.2196 7.35
      vertex 3.92313 -11.7803 7.35
      vertex 3.98073 -11.3921 7.35
    endloop
  endfacet
  facet normal 0 0 1
    outer loop
      vertex 3.92313 -10.2196 7.35
      vertex 3.98073 -11.3921 7.35
      vertex 3.98073 -10.6079 7.35
    endloop
  endfacet
  facet normal -0 0 1
    outer loop
      vertex -3.92313 -10.2196 7.35
      vertex 3.92313 -11.7803 7.35
      vertex 3.92313 -10.2196 7.35
    endloop
  endfacet
  facet normal 0 0 1
    outer loop
      vertex 4 -11 7.35
      vertex 3.98073 -10.6079 7.35
      vertex 3.98073 -11.3921 7.35
    endloop
  endfacet
  facet normal -0 0 1
    outer loop
      vertex -3.92313 -11.7803 7.35
      vertex 2.82841 -13.8284 7.35
      vertex 3.92313 -11.7803 7.35
    endloop
  endfacet
  facet normal -0 0 1
    outer loop
      vertex -3.98073 -11.3921 7.35
      vertex -3.92313 -11.7803 7.35
      vertex -3.98073 -10.6079 7.35
    endloop
  endfacet
  facet normal 0 0 1
    outer loop
      vertex 3.2648 -6.7148 7.35
      vertex 1.58929 -5.23924 7.35
      vertex 1.06812 -5.3698 7.35
    endloop
  endfacet
  facet normal 0 0 1
    outer loop
      vertex 4.64999 2.89017 7.35
      vertex 6.59236 3.52368 7.35
      vertex 6.21523 4.15288 7.35
    endloop
  endfacet
  facet normal 0 0 1
    outer loop
      vertex 5.05823 -2.09518 7.35
      vertex 4.82851 -2.58089 7.35
      vertex 6.90599 -2.86055 7.35
    endloop
  endfacet
  facet normal 0 0 1
    outer loop
      vertex 5.23924 -1.58929 7.35
      vertex 6.90599 -2.86055 7.35
      vertex 7.15312 -2.16988 7.35
    endloop
  endfacet
  facet normal 0 0 1
    outer loop
      vertex 5.3698 -1.06812 7.35
      vertex 5.23924 -1.58929 7.35
      vertex 7.33136 -1.4583 7.35
    endloop
  endfacet
  facet normal 0 0 1
    outer loop
      vertex 5.44862 -0.536636 7.35
      vertex 5.3698 -1.06812 7.35
      vertex 7.439 -0.732666 7.35
    endloop
  endfacet
  facet normal -0 0 1
    outer loop
      vertex 5.47499 0 7.35
      vertex 7.439 -0.732666 7.35
      vertex 7.47499 0 7.35
    endloop
  endfacet
  facet normal -0 0 1
    outer loop
      vertex 5.44862 0.536636 7.35
      vertex 5.47499 0 7.35
      vertex 7.439 0.732666 7.35
    endloop
  endfacet
  facet normal -0 0 1
    outer loop
      vertex 5.3698 1.06812 7.35
      vertex 7.439 0.732666 7.35
      vertex 7.33136 1.4583 7.35
    endloop
  endfacet
  facet normal 0 -0 1
    outer loop
      vertex 5.3698 1.06812 7.35
      vertex 7.33136 1.4583 7.35
      vertex 5.23924 1.58929 7.35
    endloop
  endfacet
  facet normal 0 0 1
    outer loop
      vertex 7.33136 1.4583 7.35
      vertex 7.15312 2.16988 7.35
      vertex 5.23924 1.58929 7.35
    endloop
  endfacet
  facet normal 0 0 1
    outer loop
      vertex 7.15312 2.16988 7.35
      vertex 6.90599 2.86055 7.35
      vertex 5.23924 1.58929 7.35
    endloop
  endfacet
  facet normal 0 0 1
    outer loop
      vertex 6.90599 2.86055 7.35
      vertex 5.05823 2.09518 7.35
      vertex 5.23924 1.58929 7.35
    endloop
  endfacet
  facet normal -0 0 1
    outer loop
      vertex 4.82851 2.58089 7.35
      vertex 5.05823 2.09518 7.35
      vertex 6.90599 2.86055 7.35
    endloop
  endfacet
  facet normal 0 0 1
    outer loop
      vertex 4.82851 2.58089 7.35
      vertex 6.90599 2.86055 7.35
      vertex 6.59236 3.52368 7.35
    endloop
  endfacet
  facet normal 0 -0 1
    outer loop
      vertex 4.82851 2.58089 7.35
      vertex 6.59236 3.52368 7.35
      vertex 4.64999 2.89017 7.35
    endloop
  endfacet
  facet normal 0 0 1
    outer loop
      vertex 4.64999 2.89017 7.35
      vertex 6.21523 4.15288 7.35
      vertex 5.77824 4.74208 7.35
    endloop
  endfacet
  facet normal 0 0 1
    outer loop
      vertex 4.64999 2.89017 7.35
      vertex 5.77824 4.74208 7.35
      vertex 5.43056 5.1257 7.35
    endloop
  endfacet
  facet normal -0 0 1
    outer loop
      vertex 4.64313 2.89017 7.35
      vertex 4.82851 2.58089 7.35
      vertex 4.64999 2.89017 7.35
    endloop
  endfacet
  facet normal 0 0 1
    outer loop
      vertex 4.82851 -2.58089 7.35
      vertex 6.21523 -4.15288 7.35
      vertex 6.59236 -3.52368 7.35
    endloop
  endfacet
  facet normal -0 0 1
    outer loop
      vertex 2.58089 -4.82851 7.35
      vertex 4.15288 -6.21523 7.35
      vertex 3.04173 -4.55229 7.35
    endloop
  endfacet
  facet normal 0 0 1
    outer loop
      vertex 2.58089 -4.82851 7.35
      vertex 2.09518 -5.05823 7.35
      vertex 3.2648 -6.7148 7.35
    endloop
  endfacet
  facet normal 0 -0 1
    outer loop
      vertex 5.44862 0.536636 7.35
      vertex 7.439 0.732666 7.35
      vertex 5.3698 1.06812 7.35
    endloop
  endfacet
  facet normal 0 0 1
    outer loop
      vertex 5.47499 0 7.35
      vertex 7.47499 0 7.35
      vertex 7.439 0.732666 7.35
    endloop
  endfacet
  facet normal -0 0 1
    outer loop
      vertex 5.44862 -0.536636 7.35
      vertex 7.439 -0.732666 7.35
      vertex 5.47499 0 7.35
    endloop
  endfacet
  facet normal -0 0 1
    outer loop
      vertex 5.3698 -1.06812 7.35
      vertex 7.33136 -1.4583 7.35
      vertex 7.439 -0.732666 7.35
    endloop
  endfacet
  facet normal -0 0 1
    outer loop
      vertex 5.23924 -1.58929 7.35
      vertex 7.15312 -2.16988 7.35
      vertex 7.33136 -1.4583 7.35
    endloop
  endfacet
  facet normal -0 0 1
    outer loop
      vertex 5.05823 -2.09518 7.35
      vertex 6.90599 -2.86055 7.35
      vertex 5.23924 -1.58929 7.35
    endloop
  endfacet
  facet normal 0 0 1
    outer loop
      vertex 4.82851 -2.58089 7.35
      vertex 6.59236 -3.52368 7.35
      vertex 6.90599 -2.86055 7.35
    endloop
  endfacet
  facet normal -0 0 1
    outer loop
      vertex 4.55229 -3.04173 7.35
      vertex 6.21523 -4.15288 7.35
      vertex 4.82851 -2.58089 7.35
    endloop
  endfacet
  facet normal 0 -0 1
    outer loop
      vertex 5.77824 -4.74208 7.35
      vertex 6.21523 -4.15288 7.35
      vertex 4.23222 -3.4733 7.35
    endloop
  endfacet
  facet normal -0 0 1
    outer loop
      vertex 4.23222 -3.4733 7.35
      vertex 6.21523 -4.15288 7.35
      vertex 4.55229 -3.04173 7.35
    endloop
  endfacet
  facet normal 0 0 1
    outer loop
      vertex 5.28561 -5.28561 7.35
      vertex 4.23222 -3.4733 7.35
      vertex 3.8714 -3.8714 7.35
    endloop
  endfacet
  facet normal 0 -0 1
    outer loop
      vertex 5.28561 -5.28561 7.35
      vertex 5.77824 -4.74208 7.35
      vertex 4.23222 -3.4733 7.35
    endloop
  endfacet
  facet normal -0 0 1
    outer loop
      vertex 3.4733 -4.23222 7.35
      vertex 5.28561 -5.28561 7.35
      vertex 3.8714 -3.8714 7.35
    endloop
  endfacet
  facet normal 0 -0 1
    outer loop
      vertex 4.74208 -5.77824 7.35
      vertex 5.28561 -5.28561 7.35
      vertex 3.4733 -4.23222 7.35
    endloop
  endfacet
  facet normal 0 0 1
    outer loop
      vertex 4.74208 -5.77824 7.35
      vertex 3.4733 -4.23222 7.35
      vertex 4.15288 -6.21523 7.35
    endloop
  endfacet
  facet normal 0 0 1
    outer loop
      vertex 3.4733 -4.23222 7.35
      vertex 3.04173 -4.55229 7.35
      vertex 4.15288 -6.21523 7.35
    endloop
  endfacet
  facet normal 0 0 1
    outer loop
      vertex 4.15288 -6.21523 7.35
      vertex 2.58089 -4.82851 7.35
      vertex 3.52368 -6.59236 7.35
    endloop
  endfacet
  facet normal 0 0 1
    outer loop
      vertex 2.58089 -4.82851 7.35
      vertex 3.2648 -6.7148 7.35
      vertex 3.52368 -6.59236 7.35
    endloop
  endfacet
  facet normal 0 0 1
    outer loop
      vertex 2.09518 -5.05823 7.35
      vertex 1.58929 -5.23924 7.35
      vertex 3.2648 -6.7148 7.35
    endloop
  endfacet
  facet normal 0 0 1
    outer loop
      vertex 3.2648 -6.7148 7.35
      vertex 1.06812 -5.3698 7.35
      vertex 0.536636 -5.44862 7.35
    endloop
  endfacet
  facet normal 0 0 1
    outer loop
      vertex 3.2648 -6.7148 7.35
      vertex 0.536636 -5.44862 7.35
      vertex 3.92313 -10.2196 7.35
    endloop
  endfacet
  facet normal 0 0 1
    outer loop
      vertex 0.536636 -5.44862 7.35
      vertex 0 -5.47499 7.35
      vertex 3.92313 -10.2196 7.35
    endloop
  endfacet
  facet normal 0 0 1
    outer loop
      vertex -3.92313 -10.2196 7.35
      vertex -0.536636 -5.44862 7.35
      vertex -3.2648 -6.7148 7.35
    endloop
  endfacet
  facet normal 0 0 1
    outer loop
      vertex -3.2648 -6.7148 7.35
      vertex -1.58929 -5.23924 7.35
      vertex -2.09518 -5.05823 7.35
    endloop
  endfacet
  facet normal -0 0 1
    outer loop
      vertex -3.52368 -6.59236 7.35
      vertex -3.2648 -6.7148 7.35
      vertex -2.58089 -4.82851 7.35
    endloop
  endfacet
  facet normal 0 0 1
    outer loop
      vertex -4.15288 -6.21523 7.35
      vertex -2.58089 -4.82851 7.35
      vertex -3.04173 -4.55229 7.35
    endloop
  endfacet
  facet normal -0 0 1
    outer loop
      vertex -4.74208 -5.77824 7.35
      vertex -4.15288 -6.21523 7.35
      vertex -3.4733 -4.23222 7.35
    endloop
  endfacet
  facet normal 0 0 1
    outer loop
      vertex -5.28561 -5.28561 7.35
      vertex -3.4733 -4.23222 7.35
      vertex -3.8714 -3.8714 7.35
    endloop
  endfacet
  facet normal -0 0 1
    outer loop
      vertex -6.21523 -4.15288 7.35
      vertex -5.77824 -4.74208 7.35
      vertex -4.23222 -3.4733 7.35
    endloop
  endfacet
  facet normal 0 0 1
    outer loop
      vertex -4.82851 -2.58089 7.35
      vertex -6.21523 -4.15288 7.35
      vertex -4.55229 -3.04173 7.35
    endloop
  endfacet
  facet normal -0 0 1
    outer loop
      vertex -6.90599 -2.86055 7.35
      vertex -6.59236 -3.52368 7.35
      vertex -4.82851 -2.58089 7.35
    endloop
  endfacet
  facet normal 0 0 1
    outer loop
      vertex -5.23924 -1.58929 7.35
      vertex -7.15312 -2.16988 7.35
      vertex -6.90599 -2.86055 7.35
    endloop
  endfacet
  facet normal 0 0 1
    outer loop
      vertex -5.3698 -1.06812 7.35
      vertex -7.33136 -1.4583 7.35
      vertex -5.23924 -1.58929 7.35
    endloop
  endfacet
  facet normal 0 0 1
    outer loop
      vertex -5.44862 -0.536636 7.35
      vertex -7.439 -0.732666 7.35
      vertex -5.3698 -1.06812 7.35
    endloop
  endfacet
  facet normal 0 0 1
    outer loop
      vertex -5.47499 0 7.35
      vertex -7.439 -0.732666 7.35
      vertex -5.44862 -0.536636 7.35
    endloop
  endfacet
  facet normal 0 0 1
    outer loop
      vertex -7.439 0.732666 7.35
      vertex -7.47499 0 7.35
      vertex -5.47499 0 7.35
    endloop
  endfacet
  facet normal 0 0 1
    outer loop
      vertex -5.3698 1.06812 7.35
      vertex -7.439 0.732666 7.35
      vertex -5.44862 0.536636 7.35
    endloop
  endfacet
  facet normal 0 0 1
    outer loop
      vertex -5.23924 1.58929 7.35
      vertex -7.33136 1.4583 7.35
      vertex -5.3698 1.06812 7.35
    endloop
  endfacet
  facet normal 0 0 1
    outer loop
      vertex -6.90599 2.86055 7.35
      vertex -7.15312 2.16988 7.35
      vertex -5.23924 1.58929 7.35
    endloop
  endfacet
  facet normal 0 0 1
    outer loop
      vertex -4.82851 2.58089 7.35
      vertex -6.90599 2.86055 7.35
      vertex -5.05823 2.09518 7.35
    endloop
  endfacet
  facet normal 0 0 1
    outer loop
      vertex -6.59236 3.52368 7.35
      vertex -6.90599 2.86055 7.35
      vertex -4.82851 2.58089 7.35
    endloop
  endfacet
  facet normal 0 0 1
    outer loop
      vertex -6.59236 3.52368 7.35
      vertex -4.82851 2.58089 7.35
      vertex -4.64999 2.89017 7.35
    endloop
  endfacet
  facet normal -0 0 1
    outer loop
      vertex -6.59236 3.52368 7.35
      vertex -4.64999 2.89017 7.35
      vertex -6.21523 4.15288 7.35
    endloop
  endfacet
  facet normal 0 0 1
    outer loop
      vertex -4.64999 2.89017 7.35
      vertex -5.77824 4.74208 7.35
      vertex -6.21523 4.15288 7.35
    endloop
  endfacet
  facet normal -0 0 1
    outer loop
      vertex -4.64999 2.89017 7.35
      vertex -4.82851 2.58089 7.35
      vertex -4.64313 2.89017 7.35
    endloop
  endfacet
  facet normal 0 0 1
    outer loop
      vertex -5.43056 5.1257 7.35
      vertex -5.77824 4.74208 7.35
      vertex -4.64999 2.89017 7.35
    endloop
  endfacet
  facet normal 0 0 1
    outer loop
      vertex -6.90599 2.86055 7.35
      vertex -5.23924 1.58929 7.35
      vertex -5.05823 2.09518 7.35
    endloop
  endfacet
  facet normal 0 0 1
    outer loop
      vertex -7.15312 2.16988 7.35
      vertex -7.33136 1.4583 7.35
      vertex -5.23924 1.58929 7.35
    endloop
  endfacet
  facet normal 0 0 1
    outer loop
      vertex -7.33136 1.4583 7.35
      vertex -7.439 0.732666 7.35
      vertex -5.3698 1.06812 7.35
    endloop
  endfacet
  facet normal 0 0 1
    outer loop
      vertex -7.439 0.732666 7.35
      vertex -5.47499 0 7.35
      vertex -5.44862 0.536636 7.35
    endloop
  endfacet
  facet normal -0 0 1
    outer loop
      vertex -7.47499 0 7.35
      vertex -7.439 -0.732666 7.35
      vertex -5.47499 0 7.35
    endloop
  endfacet
  facet normal 0 0 1
    outer loop
      vertex -7.439 -0.732666 7.35
      vertex -7.33136 -1.4583 7.35
      vertex -5.3698 -1.06812 7.35
    endloop
  endfacet
  facet normal 0 0 1
    outer loop
      vertex -7.33136 -1.4583 7.35
      vertex -7.15312 -2.16988 7.35
      vertex -5.23924 -1.58929 7.35
    endloop
  endfacet
  facet normal 0 0 1
    outer loop
      vertex -5.23924 -1.58929 7.35
      vertex -6.90599 -2.86055 7.35
      vertex -5.05823 -2.09518 7.35
    endloop
  endfacet
  facet normal 0 0 1
    outer loop
      vertex -6.90599 -2.86055 7.35
      vertex -4.82851 -2.58089 7.35
      vertex -5.05823 -2.09518 7.35
    endloop
  endfacet
  facet normal -0 0 1
    outer loop
      vertex -6.59236 -3.52368 7.35
      vertex -6.21523 -4.15288 7.35
      vertex -4.82851 -2.58089 7.35
    endloop
  endfacet
  facet normal 0 0 1
    outer loop
      vertex -6.21523 -4.15288 7.35
      vertex -4.23222 -3.4733 7.35
      vertex -4.55229 -3.04173 7.35
    endloop
  endfacet
  facet normal -0 0 1
    outer loop
      vertex -5.77824 -4.74208 7.35
      vertex -5.28561 -5.28561 7.35
      vertex -4.23222 -3.4733 7.35
    endloop
  endfacet
  facet normal 0 0 1
    outer loop
      vertex 0 -5.47499 7.35
      vertex -3.92313 -10.2196 7.35
      vertex 3.92313 -10.2196 7.35
    endloop
  endfacet
  facet normal 0 -0 1
    outer loop
      vertex -3.92313 -11.7803 7.35
      vertex -3.92313 -10.2196 7.35
      vertex -3.98073 -10.6079 7.35
    endloop
  endfacet
  facet normal 0 0 1
    outer loop
      vertex -5.28561 -5.28561 7.35
      vertex -3.8714 -3.8714 7.35
      vertex -4.23222 -3.4733 7.35
    endloop
  endfacet
  facet normal 0 -0 1
    outer loop
      vertex -4.74208 -5.77824 7.35
      vertex -3.4733 -4.23222 7.35
      vertex -5.28561 -5.28561 7.35
    endloop
  endfacet
  facet normal 0 0 1
    outer loop
      vertex -4.15288 -6.21523 7.35
      vertex -3.04173 -4.55229 7.35
      vertex -3.4733 -4.23222 7.35
    endloop
  endfacet
  facet normal 0 -0 1
    outer loop
      vertex -3.52368 -6.59236 7.35
      vertex -2.58089 -4.82851 7.35
      vertex -4.15288 -6.21523 7.35
    endloop
  endfacet
  facet normal 0 0 1
    outer loop
      vertex -3.2648 -6.7148 7.35
      vertex -2.09518 -5.05823 7.35
      vertex -2.58089 -4.82851 7.35
    endloop
  endfacet
  facet normal 0 0 1
    outer loop
      vertex -1.06812 -5.3698 7.35
      vertex -1.58929 -5.23924 7.35
      vertex -3.2648 -6.7148 7.35
    endloop
  endfacet
  facet normal 0 0 1
    outer loop
      vertex 0 -5.47499 7.35
      vertex -0.536636 -5.44862 7.35
      vertex -3.92313 -10.2196 7.35
    endloop
  endfacet
  facet normal 0 0 1
    outer loop
      vertex -0.536636 -5.44862 7.35
      vertex -1.06812 -5.3698 7.35
      vertex -3.2648 -6.7148 7.35
    endloop
  endfacet
  facet normal 0 0 1
    outer loop
      vertex -3.98073 -10.6079 7.35
      vertex -4 -11 7.35
      vertex -3.98073 -11.3921 7.35
    endloop
  endfacet
  facet normal 0 -0 1
    outer loop
      vertex -2.82841 -13.8284 7.35
      vertex 2.82841 -13.8284 7.35
      vertex -3.92313 -11.7803 7.35
    endloop
  endfacet
  facet normal 0 0 1
    outer loop
      vertex -3.52768 -12.8856 7.35
      vertex -3.92313 -11.7803 7.35
      vertex -3.69551 -12.5307 7.35
    endloop
  endfacet
  facet normal 0 0 1
    outer loop
      vertex -3.32587 -13.2223 7.35
      vertex -3.92313 -11.7803 7.35
      vertex -3.52768 -12.8856 7.35
    endloop
  endfacet
  facet normal -0 -0 1
    outer loop
      vertex -3.82776 -12.1611 7.35
      vertex -3.69551 -12.5307 7.35
      vertex -3.92313 -11.7803 7.35
    endloop
  endfacet
  facet normal 0 0 1
    outer loop
      vertex -2.82841 -13.8284 7.35
      vertex -3.92313 -11.7803 7.35
      vertex -3.32587 -13.2223 7.35
    endloop
  endfacet
  facet normal 0 -0 1
    outer loop
      vertex 0.78035 -14.9231 7.35
      vertex 2.82841 -13.8284 7.35
      vertex -2.82841 -13.8284 7.35
    endloop
  endfacet
  facet normal 0 0 1
    outer loop
      vertex -3.32587 -13.2223 7.35
      vertex -3.09204 -13.5376 7.35
      vertex -2.82841 -13.8284 7.35
    endloop
  endfacet
  facet normal 0 0 1
    outer loop
      vertex -0.78035 -14.9231 7.35
      vertex -2.82841 -13.8284 7.35
      vertex -2.22227 -14.3259 7.35
    endloop
  endfacet
  facet normal 0 0 1
    outer loop
      vertex -0.78035 -14.9231 7.35
      vertex -2.22227 -14.3259 7.35
      vertex -1.88557 -14.5277 7.35
    endloop
  endfacet
  facet normal -0 -0 1
    outer loop
      vertex -2.53757 -14.092 7.35
      vertex -2.22227 -14.3259 7.35
      vertex -2.82841 -13.8284 7.35
    endloop
  endfacet
  facet normal 0 0 1
    outer loop
      vertex -0.78035 -14.9231 7.35
      vertex -1.88557 -14.5277 7.35
      vertex -1.53073 -14.6955 7.35
    endloop
  endfacet
  facet normal 0 0 1
    outer loop
      vertex 0.78035 -14.9231 7.35
      vertex -2.82841 -13.8284 7.35
      vertex -0.78035 -14.9231 7.35
    endloop
  endfacet
  facet normal 0 0 1
    outer loop
      vertex -1.53073 -14.6955 7.35
      vertex -1.16113 -14.8278 7.35
      vertex -0.78035 -14.9231 7.35
    endloop
  endfacet
  facet normal 0 0 1
    outer loop
      vertex 0.78035 -14.9231 7.35
      vertex -0.78035 -14.9231 7.35
      vertex 0.392059 -14.9807 7.35
    endloop
  endfacet
  facet normal 0 0 1
    outer loop
      vertex -0.78035 -14.9231 7.35
      vertex -0.392059 -14.9807 7.35
      vertex 0.392059 -14.9807 7.35
    endloop
  endfacet
  facet normal -0 0 1
    outer loop
      vertex -0.392059 -14.9807 7.35
      vertex 0 -15 7.35
      vertex 0.392059 -14.9807 7.35
    endloop
  endfacet
  facet normal 0.146737 -0.989176 0
    outer loop
      vertex 0.78035 -14.9231 0
      vertex 0.392059 -14.9807 7.35
      vertex 0.392059 -14.9807 0
    endloop
  endfacet
  facet normal 0.146737 -0.989176 0
    outer loop
      vertex 0.78035 -14.9231 0
      vertex 0.78035 -14.9231 7.35
      vertex 0.392059 -14.9807 7.35
    endloop
  endfacet
  facet normal 0.242787 -0.97008 0
    outer loop
      vertex 1.16113 -14.8278 0
      vertex 0.78035 -14.9231 7.35
      vertex 0.78035 -14.9231 0
    endloop
  endfacet
  facet normal 0.242787 -0.97008 0
    outer loop
      vertex 1.16113 -14.8278 0
      vertex 1.16113 -14.8278 7.35
      vertex 0.78035 -14.9231 7.35
    endloop
  endfacet
  facet normal 0.337014 -0.9415 0
    outer loop
      vertex 1.53073 -14.6955 0
      vertex 1.16113 -14.8278 7.35
      vertex 1.16113 -14.8278 0
    endloop
  endfacet
  facet normal 0.337014 -0.9415 0
    outer loop
      vertex 1.53073 -14.6955 0
      vertex 1.53073 -14.6955 7.35
      vertex 1.16113 -14.8278 7.35
    endloop
  endfacet
  facet normal 0.427499 -0.904016 0
    outer loop
      vertex 1.88557 -14.5277 0
      vertex 1.53073 -14.6955 7.35
      vertex 1.53073 -14.6955 0
    endloop
  endfacet
  facet normal 0.427499 -0.904016 0
    outer loop
      vertex 1.88557 -14.5277 0
      vertex 1.88557 -14.5277 7.35
      vertex 1.53073 -14.6955 7.35
    endloop
  endfacet
  facet normal 0.514084 -0.85774 0
    outer loop
      vertex 2.22227 -14.3259 0
      vertex 1.88557 -14.5277 7.35
      vertex 1.88557 -14.5277 0
    endloop
  endfacet
  facet normal 0.514084 -0.85774 0
    outer loop
      vertex 2.22227 -14.3259 0
      vertex 2.22227 -14.3259 7.35
      vertex 1.88557 -14.5277 7.35
    endloop
  endfacet
  facet normal 0.595794 -0.803137 0
    outer loop
      vertex 2.53757 -14.092 0
      vertex 2.22227 -14.3259 7.35
      vertex 2.22227 -14.3259 0
    endloop
  endfacet
  facet normal 0.595794 -0.803137 0
    outer loop
      vertex 2.53757 -14.092 0
      vertex 2.53757 -14.092 7.35
      vertex 2.22227 -14.3259 7.35
    endloop
  endfacet
  facet normal 0.671556 -0.740954 0
    outer loop
      vertex 2.82841 -13.8284 0
      vertex 2.53757 -14.092 7.35
      vertex 2.53757 -14.092 0
    endloop
  endfacet
  facet normal 0.671556 -0.740954 0
    outer loop
      vertex 2.82841 -13.8284 0
      vertex 2.82841 -13.8284 7.35
      vertex 2.53757 -14.092 7.35
    endloop
  endfacet
  facet normal 0.74087 -0.671649 0
    outer loop
      vertex 3.09204 -13.5376 0
      vertex 2.82841 -13.8284 7.35
      vertex 2.82841 -13.8284 0
    endloop
  endfacet
  facet normal 0.74087 -0.671649 0
    outer loop
      vertex 3.09204 -13.5376 0
      vertex 3.09204 -13.5376 7.35
      vertex 2.82841 -13.8284 7.35
    endloop
  endfacet
  facet normal 0.803223 -0.595679 0
    outer loop
      vertex 3.32587 -13.2223 0
      vertex 3.09204 -13.5376 7.35
      vertex 3.09204 -13.5376 0
    endloop
  endfacet
  facet normal 0.803223 -0.595679 0
    outer loop
      vertex 3.32587 -13.2223 0
      vertex 3.32587 -13.2223 7.35
      vertex 3.09204 -13.5376 7.35
    endloop
  endfacet
  facet normal 0.857729 -0.514102 0
    outer loop
      vertex 3.52768 -12.8856 0
      vertex 3.32587 -13.2223 7.35
      vertex 3.32587 -13.2223 0
    endloop
  endfacet
  facet normal 0.857729 -0.514102 0
    outer loop
      vertex 3.52768 -12.8856 0
      vertex 3.52768 -12.8856 7.35
      vertex 3.32587 -13.2223 7.35
    endloop
  endfacet
  facet normal 0.904014 -0.427503 0
    outer loop
      vertex 3.69551 -12.5307 0
      vertex 3.52768 -12.8856 7.35
      vertex 3.52768 -12.8856 0
    endloop
  endfacet
  facet normal 0.904014 -0.427503 0
    outer loop
      vertex 3.69551 -12.5307 0
      vertex 3.69551 -12.5307 7.35
      vertex 3.52768 -12.8856 7.35
    endloop
  endfacet
  facet normal 0.94154 -0.336901 0
    outer loop
      vertex 3.82776 -12.1611 0
      vertex 3.69551 -12.5307 7.35
      vertex 3.69551 -12.5307 0
    endloop
  endfacet
  facet normal 0.94154 -0.336901 0
    outer loop
      vertex 3.82776 -12.1611 0
      vertex 3.82776 -12.1611 7.35
      vertex 3.69551 -12.5307 7.35
    endloop
  endfacet
  facet normal 0.970041 -0.242943 0
    outer loop
      vertex 3.92313 -11.7803 0
      vertex 3.82776 -12.1611 7.35
      vertex 3.82776 -12.1611 0
    endloop
  endfacet
  facet normal 0.970041 -0.242943 0
    outer loop
      vertex 3.92313 -11.7803 0
      vertex 3.92313 -11.7803 7.35
      vertex 3.82776 -12.1611 7.35
    endloop
  endfacet
  facet normal 0.989171 -0.14677 0
    outer loop
      vertex 3.98073 -11.3921 0
      vertex 3.92313 -11.7803 7.35
      vertex 3.92313 -11.7803 0
    endloop
  endfacet
  facet normal 0.989171 -0.14677 0
    outer loop
      vertex 3.98073 -11.3921 0
      vertex 3.98073 -11.3921 7.35
      vertex 3.92313 -11.7803 7.35
    endloop
  endfacet
  facet normal 0.998795 -0.0490864 0
    outer loop
      vertex 4 -11 0
      vertex 3.98073 -11.3921 7.35
      vertex 3.98073 -11.3921 0
    endloop
  endfacet
  facet normal 0.998795 -0.0490864 0
    outer loop
      vertex 4 -11 0
      vertex 4 -11 7.35
      vertex 3.98073 -11.3921 7.35
    endloop
  endfacet
  facet normal 0.998795 0.0490864 0
    outer loop
      vertex 3.98073 -10.6079 0
      vertex 4 -11 7.35
      vertex 4 -11 0
    endloop
  endfacet
  facet normal 0.998795 0.0490864 -0
    outer loop
      vertex 3.98073 -10.6079 0
      vertex 3.98073 -10.6079 7.35
      vertex 4 -11 7.35
    endloop
  endfacet
  facet normal 0.989176 0.146733 0
    outer loop
      vertex 3.92313 -10.2196 0
      vertex 3.98073 -10.6079 7.35
      vertex 3.98073 -10.6079 0
    endloop
  endfacet
  facet normal 0.989176 0.146733 -0
    outer loop
      vertex 3.92313 -10.2196 0
      vertex 3.92313 -10.2196 7.35
      vertex 3.98073 -10.6079 7.35
    endloop
  endfacet
  facet normal 0.982812 0.184608 0
    outer loop
      vertex 3.2648 -6.7148 0
      vertex 3.92313 -10.2196 7.35
      vertex 3.92313 -10.2196 0
    endloop
  endfacet
  facet normal 0.982812 0.184608 -0
    outer loop
      vertex 3.2648 -6.7148 0
      vertex 3.2648 -6.7148 7.35
      vertex 3.92313 -10.2196 7.35
    endloop
  endfacet
  facet normal 0.427552 -0.903991 0
    outer loop
      vertex 3.52368 -6.59236 0
      vertex 3.2648 -6.7148 7.35
      vertex 3.2648 -6.7148 0
    endloop
  endfacet
  facet normal 0.427552 -0.903991 0
    outer loop
      vertex 3.52368 -6.59236 0
      vertex 3.52368 -6.59236 7.35
      vertex 3.2648 -6.7148 7.35
    endloop
  endfacet
  facet normal 0.514105 -0.857727 0
    outer loop
      vertex 4.15288 -6.21523 0
      vertex 3.52368 -6.59236 7.35
      vertex 3.52368 -6.59236 0
    endloop
  endfacet
  facet normal 0.514105 -0.857727 0
    outer loop
      vertex 4.15288 -6.21523 0
      vertex 4.15288 -6.21523 7.35
      vertex 3.52368 -6.59236 7.35
    endloop
  endfacet
  facet normal 0.595708 -0.803201 0
    outer loop
      vertex 4.74208 -5.77824 0
      vertex 4.15288 -6.21523 7.35
      vertex 4.15288 -6.21523 0
    endloop
  endfacet
  facet normal 0.595708 -0.803201 0
    outer loop
      vertex 4.74208 -5.77824 0
      vertex 4.74208 -5.77824 7.35
      vertex 4.15288 -6.21523 7.35
    endloop
  endfacet
  facet normal 0.671561 -0.740949 0
    outer loop
      vertex 5.28561 -5.28561 0
      vertex 4.74208 -5.77824 7.35
      vertex 4.74208 -5.77824 0
    endloop
  endfacet
  facet normal 0.671561 -0.740949 0
    outer loop
      vertex 5.28561 -5.28561 0
      vertex 5.28561 -5.28561 7.35
      vertex 4.74208 -5.77824 7.35
    endloop
  endfacet
  facet normal 0.740949 -0.671561 0
    outer loop
      vertex 5.77824 -4.74208 0
      vertex 5.28561 -5.28561 7.35
      vertex 5.28561 -5.28561 0
    endloop
  endfacet
  facet normal 0.740949 -0.671561 0
    outer loop
      vertex 5.77824 -4.74208 0
      vertex 5.77824 -4.74208 7.35
      vertex 5.28561 -5.28561 7.35
    endloop
  endfacet
  facet normal 0.803201 -0.595708 0
    outer loop
      vertex 6.21523 -4.15288 0
      vertex 5.77824 -4.74208 7.35
      vertex 5.77824 -4.74208 0
    endloop
  endfacet
  facet normal 0.803201 -0.595708 0
    outer loop
      vertex 6.21523 -4.15288 0
      vertex 6.21523 -4.15288 7.35
      vertex 5.77824 -4.74208 7.35
    endloop
  endfacet
  facet normal 0.857727 -0.514105 0
    outer loop
      vertex 6.59236 -3.52368 0
      vertex 6.21523 -4.15288 7.35
      vertex 6.21523 -4.15288 0
    endloop
  endfacet
  facet normal 0.857727 -0.514105 0
    outer loop
      vertex 6.59236 -3.52368 0
      vertex 6.59236 -3.52368 7.35
      vertex 6.21523 -4.15288 7.35
    endloop
  endfacet
  facet normal 0.903993 -0.427547 0
    outer loop
      vertex 6.90599 -2.86055 0
      vertex 6.59236 -3.52368 7.35
      vertex 6.59236 -3.52368 0
    endloop
  endfacet
  facet normal 0.903993 -0.427547 0
    outer loop
      vertex 6.90599 -2.86055 0
      vertex 6.90599 -2.86055 7.35
      vertex 6.59236 -3.52368 7.35
    endloop
  endfacet
  facet normal 0.941542 -0.336895 0
    outer loop
      vertex 7.15312 -2.16988 0
      vertex 6.90599 -2.86055 7.35
      vertex 6.90599 -2.86055 0
    endloop
  endfacet
  facet normal 0.941542 -0.336895 0
    outer loop
      vertex 7.15312 -2.16988 0
      vertex 7.15312 -2.16988 7.35
      vertex 6.90599 -2.86055 7.35
    endloop
  endfacet
  facet normal 0.970032 -0.242978 0
    outer loop
      vertex 7.33136 -1.4583 0
      vertex 7.15312 -2.16988 7.35
      vertex 7.15312 -2.16988 0
    endloop
  endfacet
  facet normal 0.970032 -0.242978 0
    outer loop
      vertex 7.33136 -1.4583 0
      vertex 7.33136 -1.4583 7.35
      vertex 7.15312 -2.16988 7.35
    endloop
  endfacet
  facet normal 0.989176 -0.146734 0
    outer loop
      vertex 7.439 -0.732666 0
      vertex 7.33136 -1.4583 7.35
      vertex 7.33136 -1.4583 0
    endloop
  endfacet
  facet normal 0.989176 -0.146734 0
    outer loop
      vertex 7.439 -0.732666 0
      vertex 7.439 -0.732666 7.35
      vertex 7.33136 -1.4583 7.35
    endloop
  endfacet
  facet normal 0.998796 -0.0490628 0
    outer loop
      vertex 7.47499 0 0
      vertex 7.439 -0.732666 7.35
      vertex 7.439 -0.732666 0
    endloop
  endfacet
  facet normal 0.998796 -0.0490628 0
    outer loop
      vertex 7.47499 0 0
      vertex 7.47499 0 7.35
      vertex 7.439 -0.732666 7.35
    endloop
  endfacet
  facet normal 0.998796 0.0490628 0
    outer loop
      vertex 7.439 0.732666 0
      vertex 7.47499 0 7.35
      vertex 7.47499 0 0
    endloop
  endfacet
  facet normal 0.998796 0.0490628 -0
    outer loop
      vertex 7.439 0.732666 0
      vertex 7.439 0.732666 7.35
      vertex 7.47499 0 7.35
    endloop
  endfacet
  facet normal 0.989176 0.146734 0
    outer loop
      vertex 7.33136 1.4583 0
      vertex 7.439 0.732666 7.35
      vertex 7.439 0.732666 0
    endloop
  endfacet
  facet normal 0.989176 0.146734 -0
    outer loop
      vertex 7.33136 1.4583 0
      vertex 7.33136 1.4583 7.35
      vertex 7.439 0.732666 7.35
    endloop
  endfacet
  facet normal 0.970032 0.242978 0
    outer loop
      vertex 7.15312 2.16988 0
      vertex 7.33136 1.4583 7.35
      vertex 7.33136 1.4583 0
    endloop
  endfacet
  facet normal 0.970032 0.242978 -0
    outer loop
      vertex 7.15312 2.16988 0
      vertex 7.15312 2.16988 7.35
      vertex 7.33136 1.4583 7.35
    endloop
  endfacet
  facet normal 0.941542 0.336895 0
    outer loop
      vertex 6.90599 2.86055 0
      vertex 7.15312 2.16988 7.35
      vertex 7.15312 2.16988 0
    endloop
  endfacet
  facet normal 0.941542 0.336895 -0
    outer loop
      vertex 6.90599 2.86055 0
      vertex 6.90599 2.86055 7.35
      vertex 7.15312 2.16988 7.35
    endloop
  endfacet
  facet normal 0.903993 0.427547 0
    outer loop
      vertex 6.59236 3.52368 0
      vertex 6.90599 2.86055 7.35
      vertex 6.90599 2.86055 0
    endloop
  endfacet
  facet normal 0.903993 0.427547 -0
    outer loop
      vertex 6.59236 3.52368 0
      vertex 6.59236 3.52368 7.35
      vertex 6.90599 2.86055 7.35
    endloop
  endfacet
  facet normal 0.857727 0.514105 0
    outer loop
      vertex 6.21523 4.15288 0
      vertex 6.59236 3.52368 7.35
      vertex 6.59236 3.52368 0
    endloop
  endfacet
  facet normal 0.857727 0.514105 -0
    outer loop
      vertex 6.21523 4.15288 0
      vertex 6.21523 4.15288 7.35
      vertex 6.59236 3.52368 7.35
    endloop
  endfacet
  facet normal 0.803201 0.595708 0
    outer loop
      vertex 5.77824 4.74208 0
      vertex 6.21523 4.15288 7.35
      vertex 6.21523 4.15288 0
    endloop
  endfacet
  facet normal 0.803201 0.595708 -0
    outer loop
      vertex 5.77824 4.74208 0
      vertex 5.77824 4.74208 7.35
      vertex 6.21523 4.15288 7.35
    endloop
  endfacet
  facet normal 0.740964 0.671545 0
    outer loop
      vertex 5.43056 5.1257 0
      vertex 5.77824 4.74208 7.35
      vertex 5.77824 4.74208 0
    endloop
  endfacet
  facet normal 0.740964 0.671545 -0
    outer loop
      vertex 5.43056 5.1257 0
      vertex 5.43056 5.1257 7.35
      vertex 5.77824 4.74208 7.35
    endloop
  endfacet
  facet normal -0.944104 0.329648 0
    outer loop
      vertex 4.64999 2.89017 0
      vertex 5.43056 5.1257 7.35
      vertex 5.43056 5.1257 0
    endloop
  endfacet
  facet normal -0.944104 0.329648 0
    outer loop
      vertex 4.64999 2.89017 0
      vertex 4.64999 2.89017 7.35
      vertex 5.43056 5.1257 7.35
    endloop
  endfacet
  facet normal 0 1 0
    outer loop
      vertex 4.64313 2.89017 0
      vertex 4.64999 2.89017 7.35
      vertex 4.64999 2.89017 0
    endloop
  endfacet
  facet normal 0 1 0
    outer loop
      vertex 4.64313 2.89017 0
      vertex 4.64313 2.89017 7.35
      vertex 4.64999 2.89017 7.35
    endloop
  endfacet
  facet normal -0.857723 -0.514112 0
    outer loop
      vertex 4.82851 2.58089 0
      vertex 4.64313 2.89017 7.35
      vertex 4.64313 2.89017 0
    endloop
  endfacet
  facet normal -0.857723 -0.514112 0
    outer loop
      vertex 4.82851 2.58089 0
      vertex 4.82851 2.58089 7.35
      vertex 4.64313 2.89017 7.35
    endloop
  endfacet
  facet normal -0.903992 -0.427549 0
    outer loop
      vertex 5.05823 2.09518 0
      vertex 4.82851 2.58089 7.35
      vertex 4.82851 2.58089 0
    endloop
  endfacet
  facet normal -0.903992 -0.427549 0
    outer loop
      vertex 5.05823 2.09518 0
      vertex 5.05823 2.09518 7.35
      vertex 4.82851 2.58089 7.35
    endloop
  endfacet
  facet normal -0.941544 -0.336889 0
    outer loop
      vertex 5.23924 1.58929 0
      vertex 5.05823 2.09518 7.35
      vertex 5.05823 2.09518 0
    endloop
  endfacet
  facet normal -0.941544 -0.336889 0
    outer loop
      vertex 5.23924 1.58929 0
      vertex 5.23924 1.58929 7.35
      vertex 5.05823 2.09518 7.35
    endloop
  endfacet
  facet normal -0.970025 -0.243004 0
    outer loop
      vertex 5.3698 1.06812 0
      vertex 5.23924 1.58929 7.35
      vertex 5.23924 1.58929 0
    endloop
  endfacet
  facet normal -0.970025 -0.243004 0
    outer loop
      vertex 5.3698 1.06812 0
      vertex 5.3698 1.06812 7.35
      vertex 5.23924 1.58929 7.35
    endloop
  endfacet
  facet normal -0.989181 -0.146697 0
    outer loop
      vertex 5.44862 0.536636 0
      vertex 5.3698 1.06812 7.35
      vertex 5.3698 1.06812 0
    endloop
  endfacet
  facet normal -0.989181 -0.146697 0
    outer loop
      vertex 5.44862 0.536636 0
      vertex 5.44862 0.536636 7.35
      vertex 5.3698 1.06812 7.35
    endloop
  endfacet
  facet normal -0.998795 -0.0490802 0
    outer loop
      vertex 5.47499 0 0
      vertex 5.44862 0.536636 7.35
      vertex 5.44862 0.536636 0
    endloop
  endfacet
  facet normal -0.998795 -0.0490802 0
    outer loop
      vertex 5.47499 0 0
      vertex 5.47499 0 7.35
      vertex 5.44862 0.536636 7.35
    endloop
  endfacet
  facet normal -0.998795 0.0490802 0
    outer loop
      vertex 5.44862 -0.536636 0
      vertex 5.47499 0 7.35
      vertex 5.47499 0 0
    endloop
  endfacet
  facet normal -0.998795 0.0490802 0
    outer loop
      vertex 5.44862 -0.536636 0
      vertex 5.44862 -0.536636 7.35
      vertex 5.47499 0 7.35
    endloop
  endfacet
  facet normal -0.989181 0.146697 0
    outer loop
      vertex 5.3698 -1.06812 0
      vertex 5.44862 -0.536636 7.35
      vertex 5.44862 -0.536636 0
    endloop
  endfacet
  facet normal -0.989181 0.146697 0
    outer loop
      vertex 5.3698 -1.06812 0
      vertex 5.3698 -1.06812 7.35
      vertex 5.44862 -0.536636 7.35
    endloop
  endfacet
  facet normal -0.970025 0.243004 0
    outer loop
      vertex 5.23924 -1.58929 0
      vertex 5.3698 -1.06812 7.35
      vertex 5.3698 -1.06812 0
    endloop
  endfacet
  facet normal -0.970025 0.243004 0
    outer loop
      vertex 5.23924 -1.58929 0
      vertex 5.23924 -1.58929 7.35
      vertex 5.3698 -1.06812 7.35
    endloop
  endfacet
  facet normal -0.941544 0.336889 0
    outer loop
      vertex 5.05823 -2.09518 0
      vertex 5.23924 -1.58929 7.35
      vertex 5.23924 -1.58929 0
    endloop
  endfacet
  facet normal -0.941544 0.336889 0
    outer loop
      vertex 5.05823 -2.09518 0
      vertex 5.05823 -2.09518 7.35
      vertex 5.23924 -1.58929 7.35
    endloop
  endfacet
  facet normal -0.903992 0.427549 0
    outer loop
      vertex 4.82851 -2.58089 0
      vertex 5.05823 -2.09518 7.35
      vertex 5.05823 -2.09518 0
    endloop
  endfacet
  facet normal -0.903992 0.427549 0
    outer loop
      vertex 4.82851 -2.58089 0
      vertex 4.82851 -2.58089 7.35
      vertex 5.05823 -2.09518 7.35
    endloop
  endfacet
  facet normal -0.857726 0.514107 0
    outer loop
      vertex 4.55229 -3.04173 0
      vertex 4.82851 -2.58089 7.35
      vertex 4.82851 -2.58089 0
    endloop
  endfacet
  facet normal -0.857726 0.514107 0
    outer loop
      vertex 4.55229 -3.04173 0
      vertex 4.55229 -3.04173 7.35
      vertex 4.82851 -2.58089 7.35
    endloop
  endfacet
  facet normal -0.803211 0.595694 0
    outer loop
      vertex 4.23222 -3.4733 0
      vertex 4.55229 -3.04173 7.35
      vertex 4.55229 -3.04173 0
    endloop
  endfacet
  facet normal -0.803211 0.595694 0
    outer loop
      vertex 4.23222 -3.4733 0
      vertex 4.23222 -3.4733 7.35
      vertex 4.55229 -3.04173 7.35
    endloop
  endfacet
  facet normal -0.740948 0.671562 0
    outer loop
      vertex 3.8714 -3.8714 0
      vertex 4.23222 -3.4733 7.35
      vertex 4.23222 -3.4733 0
    endloop
  endfacet
  facet normal -0.740948 0.671562 0
    outer loop
      vertex 3.8714 -3.8714 0
      vertex 3.8714 -3.8714 7.35
      vertex 4.23222 -3.4733 7.35
    endloop
  endfacet
  facet normal -0.671562 0.740948 0
    outer loop
      vertex 3.4733 -4.23222 0
      vertex 3.8714 -3.8714 7.35
      vertex 3.8714 -3.8714 0
    endloop
  endfacet
  facet normal -0.671562 0.740948 0
    outer loop
      vertex 3.4733 -4.23222 0
      vertex 3.4733 -4.23222 7.35
      vertex 3.8714 -3.8714 7.35
    endloop
  endfacet
  facet normal -0.595694 0.803211 0
    outer loop
      vertex 3.04173 -4.55229 0
      vertex 3.4733 -4.23222 7.35
      vertex 3.4733 -4.23222 0
    endloop
  endfacet
  facet normal -0.595694 0.803211 0
    outer loop
      vertex 3.04173 -4.55229 0
      vertex 3.04173 -4.55229 7.35
      vertex 3.4733 -4.23222 7.35
    endloop
  endfacet
  facet normal -0.514107 0.857726 0
    outer loop
      vertex 2.58089 -4.82851 0
      vertex 3.04173 -4.55229 7.35
      vertex 3.04173 -4.55229 0
    endloop
  endfacet
  facet normal -0.514107 0.857726 0
    outer loop
      vertex 2.58089 -4.82851 0
      vertex 2.58089 -4.82851 7.35
      vertex 3.04173 -4.55229 7.35
    endloop
  endfacet
  facet normal -0.427549 0.903992 0
    outer loop
      vertex 2.09518 -5.05823 0
      vertex 2.58089 -4.82851 7.35
      vertex 2.58089 -4.82851 0
    endloop
  endfacet
  facet normal -0.427549 0.903992 0
    outer loop
      vertex 2.09518 -5.05823 0
      vertex 2.09518 -5.05823 7.35
      vertex 2.58089 -4.82851 7.35
    endloop
  endfacet
  facet normal -0.336889 0.941544 0
    outer loop
      vertex 1.58929 -5.23924 0
      vertex 2.09518 -5.05823 7.35
      vertex 2.09518 -5.05823 0
    endloop
  endfacet
  facet normal -0.336889 0.941544 0
    outer loop
      vertex 1.58929 -5.23924 0
      vertex 1.58929 -5.23924 7.35
      vertex 2.09518 -5.05823 7.35
    endloop
  endfacet
  facet normal -0.243004 0.970025 0
    outer loop
      vertex 1.06812 -5.3698 0
      vertex 1.58929 -5.23924 7.35
      vertex 1.58929 -5.23924 0
    endloop
  endfacet
  facet normal -0.243004 0.970025 0
    outer loop
      vertex 1.06812 -5.3698 0
      vertex 1.06812 -5.3698 7.35
      vertex 1.58929 -5.23924 7.35
    endloop
  endfacet
  facet normal -0.146697 0.989181 0
    outer loop
      vertex 0.536636 -5.44862 0
      vertex 1.06812 -5.3698 7.35
      vertex 1.06812 -5.3698 0
    endloop
  endfacet
  facet normal -0.146697 0.989181 0
    outer loop
      vertex 0.536636 -5.44862 0
      vertex 0.536636 -5.44862 7.35
      vertex 1.06812 -5.3698 7.35
    endloop
  endfacet
  facet normal -0.0490802 0.998795 0
    outer loop
      vertex 0 -5.47499 0
      vertex 0.536636 -5.44862 7.35
      vertex 0.536636 -5.44862 0
    endloop
  endfacet
  facet normal -0.0490802 0.998795 0
    outer loop
      vertex 0 -5.47499 0
      vertex 0 -5.47499 7.35
      vertex 0.536636 -5.44862 7.35
    endloop
  endfacet
  facet normal 0.0490802 0.998795 0
    outer loop
      vertex -0.536636 -5.44862 0
      vertex 0 -5.47499 7.35
      vertex 0 -5.47499 0
    endloop
  endfacet
  facet normal 0.0490802 0.998795 -0
    outer loop
      vertex -0.536636 -5.44862 0
      vertex -0.536636 -5.44862 7.35
      vertex 0 -5.47499 7.35
    endloop
  endfacet
  facet normal 0.146697 0.989181 0
    outer loop
      vertex -1.06812 -5.3698 0
      vertex -0.536636 -5.44862 7.35
      vertex -0.536636 -5.44862 0
    endloop
  endfacet
  facet normal 0.146697 0.989181 -0
    outer loop
      vertex -1.06812 -5.3698 0
      vertex -1.06812 -5.3698 7.35
      vertex -0.536636 -5.44862 7.35
    endloop
  endfacet
  facet normal 0.243004 0.970025 0
    outer loop
      vertex -1.58929 -5.23924 0
      vertex -1.06812 -5.3698 7.35
      vertex -1.06812 -5.3698 0
    endloop
  endfacet
  facet normal 0.243004 0.970025 -0
    outer loop
      vertex -1.58929 -5.23924 0
      vertex -1.58929 -5.23924 7.35
      vertex -1.06812 -5.3698 7.35
    endloop
  endfacet
  facet normal 0.336889 0.941544 0
    outer loop
      vertex -2.09518 -5.05823 0
      vertex -1.58929 -5.23924 7.35
      vertex -1.58929 -5.23924 0
    endloop
  endfacet
  facet normal 0.336889 0.941544 -0
    outer loop
      vertex -2.09518 -5.05823 0
      vertex -2.09518 -5.05823 7.35
      vertex -1.58929 -5.23924 7.35
    endloop
  endfacet
  facet normal 0.427549 0.903992 0
    outer loop
      vertex -2.58089 -4.82851 0
      vertex -2.09518 -5.05823 7.35
      vertex -2.09518 -5.05823 0
    endloop
  endfacet
  facet normal 0.427549 0.903992 -0
    outer loop
      vertex -2.58089 -4.82851 0
      vertex -2.58089 -4.82851 7.35
      vertex -2.09518 -5.05823 7.35
    endloop
  endfacet
  facet normal 0.514107 0.857726 0
    outer loop
      vertex -3.04173 -4.55229 0
      vertex -2.58089 -4.82851 7.35
      vertex -2.58089 -4.82851 0
    endloop
  endfacet
  facet normal 0.514107 0.857726 -0
    outer loop
      vertex -3.04173 -4.55229 0
      vertex -3.04173 -4.55229 7.35
      vertex -2.58089 -4.82851 7.35
    endloop
  endfacet
  facet normal 0.595694 0.803211 0
    outer loop
      vertex -3.4733 -4.23222 0
      vertex -3.04173 -4.55229 7.35
      vertex -3.04173 -4.55229 0
    endloop
  endfacet
  facet normal 0.595694 0.803211 -0
    outer loop
      vertex -3.4733 -4.23222 0
      vertex -3.4733 -4.23222 7.35
      vertex -3.04173 -4.55229 7.35
    endloop
  endfacet
  facet normal 0.671562 0.740948 0
    outer loop
      vertex -3.8714 -3.8714 0
      vertex -3.4733 -4.23222 7.35
      vertex -3.4733 -4.23222 0
    endloop
  endfacet
  facet normal 0.671562 0.740948 -0
    outer loop
      vertex -3.8714 -3.8714 0
      vertex -3.8714 -3.8714 7.35
      vertex -3.4733 -4.23222 7.35
    endloop
  endfacet
  facet normal 0.740948 0.671562 0
    outer loop
      vertex -4.23222 -3.4733 0
      vertex -3.8714 -3.8714 7.35
      vertex -3.8714 -3.8714 0
    endloop
  endfacet
  facet normal 0.740948 0.671562 -0
    outer loop
      vertex -4.23222 -3.4733 0
      vertex -4.23222 -3.4733 7.35
      vertex -3.8714 -3.8714 7.35
    endloop
  endfacet
  facet normal 0.803211 0.595694 0
    outer loop
      vertex -4.55229 -3.04173 0
      vertex -4.23222 -3.4733 7.35
      vertex -4.23222 -3.4733 0
    endloop
  endfacet
  facet normal 0.803211 0.595694 -0
    outer loop
      vertex -4.55229 -3.04173 0
      vertex -4.55229 -3.04173 7.35
      vertex -4.23222 -3.4733 7.35
    endloop
  endfacet
  facet normal 0.857726 0.514107 0
    outer loop
      vertex -4.82851 -2.58089 0
      vertex -4.55229 -3.04173 7.35
      vertex -4.55229 -3.04173 0
    endloop
  endfacet
  facet normal 0.857726 0.514107 -0
    outer loop
      vertex -4.82851 -2.58089 0
      vertex -4.82851 -2.58089 7.35
      vertex -4.55229 -3.04173 7.35
    endloop
  endfacet
  facet normal 0.903992 0.427549 0
    outer loop
      vertex -5.05823 -2.09518 0
      vertex -4.82851 -2.58089 7.35
      vertex -4.82851 -2.58089 0
    endloop
  endfacet
  facet normal 0.903992 0.427549 -0
    outer loop
      vertex -5.05823 -2.09518 0
      vertex -5.05823 -2.09518 7.35
      vertex -4.82851 -2.58089 7.35
    endloop
  endfacet
  facet normal 0.941544 0.336889 0
    outer loop
      vertex -5.23924 -1.58929 0
      vertex -5.05823 -2.09518 7.35
      vertex -5.05823 -2.09518 0
    endloop
  endfacet
  facet normal 0.941544 0.336889 -0
    outer loop
      vertex -5.23924 -1.58929 0
      vertex -5.23924 -1.58929 7.35
      vertex -5.05823 -2.09518 7.35
    endloop
  endfacet
  facet normal 0.970025 0.243004 0
    outer loop
      vertex -5.3698 -1.06812 0
      vertex -5.23924 -1.58929 7.35
      vertex -5.23924 -1.58929 0
    endloop
  endfacet
  facet normal 0.970025 0.243004 -0
    outer loop
      vertex -5.3698 -1.06812 0
      vertex -5.3698 -1.06812 7.35
      vertex -5.23924 -1.58929 7.35
    endloop
  endfacet
  facet normal 0.989181 0.146697 0
    outer loop
      vertex -5.44862 -0.536636 0
      vertex -5.3698 -1.06812 7.35
      vertex -5.3698 -1.06812 0
    endloop
  endfacet
  facet normal 0.989181 0.146697 -0
    outer loop
      vertex -5.44862 -0.536636 0
      vertex -5.44862 -0.536636 7.35
      vertex -5.3698 -1.06812 7.35
    endloop
  endfacet
  facet normal 0.998795 0.0490802 0
    outer loop
      vertex -5.47499 0 0
      vertex -5.44862 -0.536636 7.35
      vertex -5.44862 -0.536636 0
    endloop
  endfacet
  facet normal 0.998795 0.0490802 -0
    outer loop
      vertex -5.47499 0 0
      vertex -5.47499 0 7.35
      vertex -5.44862 -0.536636 7.35
    endloop
  endfacet
  facet normal 0.998795 -0.0490802 0
    outer loop
      vertex -5.44862 0.536636 0
      vertex -5.47499 0 7.35
      vertex -5.47499 0 0
    endloop
  endfacet
  facet normal 0.998795 -0.0490802 0
    outer loop
      vertex -5.44862 0.536636 0
      vertex -5.44862 0.536636 7.35
      vertex -5.47499 0 7.35
    endloop
  endfacet
  facet normal 0.989181 -0.146697 0
    outer loop
      vertex -5.3698 1.06812 0
      vertex -5.44862 0.536636 7.35
      vertex -5.44862 0.536636 0
    endloop
  endfacet
  facet normal 0.989181 -0.146697 0
    outer loop
      vertex -5.3698 1.06812 0
      vertex -5.3698 1.06812 7.35
      vertex -5.44862 0.536636 7.35
    endloop
  endfacet
  facet normal 0.970025 -0.243004 0
    outer loop
      vertex -5.23924 1.58929 0
      vertex -5.3698 1.06812 7.35
      vertex -5.3698 1.06812 0
    endloop
  endfacet
  facet normal 0.970025 -0.243004 0
    outer loop
      vertex -5.23924 1.58929 0
      vertex -5.23924 1.58929 7.35
      vertex -5.3698 1.06812 7.35
    endloop
  endfacet
  facet normal 0.941544 -0.336889 0
    outer loop
      vertex -5.05823 2.09518 0
      vertex -5.23924 1.58929 7.35
      vertex -5.23924 1.58929 0
    endloop
  endfacet
  facet normal 0.941544 -0.336889 0
    outer loop
      vertex -5.05823 2.09518 0
      vertex -5.05823 2.09518 7.35
      vertex -5.23924 1.58929 7.35
    endloop
  endfacet
  facet normal 0.903992 -0.427549 0
    outer loop
      vertex -4.82851 2.58089 0
      vertex -5.05823 2.09518 7.35
      vertex -5.05823 2.09518 0
    endloop
  endfacet
  facet normal 0.903992 -0.427549 0
    outer loop
      vertex -4.82851 2.58089 0
      vertex -4.82851 2.58089 7.35
      vertex -5.05823 2.09518 7.35
    endloop
  endfacet
  facet normal 0.857723 -0.514112 0
    outer loop
      vertex -4.64313 2.89017 0
      vertex -4.82851 2.58089 7.35
      vertex -4.82851 2.58089 0
    endloop
  endfacet
  facet normal 0.857723 -0.514112 0
    outer loop
      vertex -4.64313 2.89017 0
      vertex -4.64313 2.89017 7.35
      vertex -4.82851 2.58089 7.35
    endloop
  endfacet
  facet normal 0 1 0
    outer loop
      vertex -4.64999 2.89017 0
      vertex -4.64313 2.89017 7.35
      vertex -4.64313 2.89017 0
    endloop
  endfacet
  facet normal 0 1 0
    outer loop
      vertex -4.64999 2.89017 0
      vertex -4.64999 2.89017 7.35
      vertex -4.64313 2.89017 7.35
    endloop
  endfacet
  facet normal 0.944104 0.329648 0
    outer loop
      vertex -5.43056 5.1257 0
      vertex -4.64999 2.89017 7.35
      vertex -4.64999 2.89017 0
    endloop
  endfacet
  facet normal 0.944104 0.329648 -0
    outer loop
      vertex -5.43056 5.1257 0
      vertex -5.43056 5.1257 7.35
      vertex -4.64999 2.89017 7.35
    endloop
  endfacet
  facet normal -0.740964 0.671545 0
    outer loop
      vertex -5.77824 4.74208 0
      vertex -5.43056 5.1257 7.35
      vertex -5.43056 5.1257 0
    endloop
  endfacet
  facet normal -0.740964 0.671545 0
    outer loop
      vertex -5.77824 4.74208 0
      vertex -5.77824 4.74208 7.35
      vertex -5.43056 5.1257 7.35
    endloop
  endfacet
  facet normal -0.803201 0.595708 0
    outer loop
      vertex -6.21523 4.15288 0
      vertex -5.77824 4.74208 7.35
      vertex -5.77824 4.74208 0
    endloop
  endfacet
  facet normal -0.803201 0.595708 0
    outer loop
      vertex -6.21523 4.15288 0
      vertex -6.21523 4.15288 7.35
      vertex -5.77824 4.74208 7.35
    endloop
  endfacet
  facet normal -0.857727 0.514105 0
    outer loop
      vertex -6.59236 3.52368 0
      vertex -6.21523 4.15288 7.35
      vertex -6.21523 4.15288 0
    endloop
  endfacet
  facet normal -0.857727 0.514105 0
    outer loop
      vertex -6.59236 3.52368 0
      vertex -6.59236 3.52368 7.35
      vertex -6.21523 4.15288 7.35
    endloop
  endfacet
  facet normal -0.903993 0.427547 0
    outer loop
      vertex -6.90599 2.86055 0
      vertex -6.59236 3.52368 7.35
      vertex -6.59236 3.52368 0
    endloop
  endfacet
  facet normal -0.903993 0.427547 0
    outer loop
      vertex -6.90599 2.86055 0
      vertex -6.90599 2.86055 7.35
      vertex -6.59236 3.52368 7.35
    endloop
  endfacet
  facet normal -0.941542 0.336895 0
    outer loop
      vertex -7.15312 2.16988 0
      vertex -6.90599 2.86055 7.35
      vertex -6.90599 2.86055 0
    endloop
  endfacet
  facet normal -0.941542 0.336895 0
    outer loop
      vertex -7.15312 2.16988 0
      vertex -7.15312 2.16988 7.35
      vertex -6.90599 2.86055 7.35
    endloop
  endfacet
  facet normal -0.970032 0.242978 0
    outer loop
      vertex -7.33136 1.4583 0
      vertex -7.15312 2.16988 7.35
      vertex -7.15312 2.16988 0
    endloop
  endfacet
  facet normal -0.970032 0.242978 0
    outer loop
      vertex -7.33136 1.4583 0
      vertex -7.33136 1.4583 7.35
      vertex -7.15312 2.16988 7.35
    endloop
  endfacet
  facet normal -0.989176 0.146734 0
    outer loop
      vertex -7.439 0.732666 0
      vertex -7.33136 1.4583 7.35
      vertex -7.33136 1.4583 0
    endloop
  endfacet
  facet normal -0.989176 0.146734 0
    outer loop
      vertex -7.439 0.732666 0
      vertex -7.439 0.732666 7.35
      vertex -7.33136 1.4583 7.35
    endloop
  endfacet
  facet normal -0.998796 0.0490628 0
    outer loop
      vertex -7.47499 0 0
      vertex -7.439 0.732666 7.35
      vertex -7.439 0.732666 0
    endloop
  endfacet
  facet normal -0.998796 0.0490628 0
    outer loop
      vertex -7.47499 0 0
      vertex -7.47499 0 7.35
      vertex -7.439 0.732666 7.35
    endloop
  endfacet
  facet normal -0.998796 -0.0490628 0
    outer loop
      vertex -7.439 -0.732666 0
      vertex -7.47499 0 7.35
      vertex -7.47499 0 0
    endloop
  endfacet
  facet normal -0.998796 -0.0490628 0
    outer loop
      vertex -7.439 -0.732666 0
      vertex -7.439 -0.732666 7.35
      vertex -7.47499 0 7.35
    endloop
  endfacet
  facet normal -0.989176 -0.146734 0
    outer loop
      vertex -7.33136 -1.4583 0
      vertex -7.439 -0.732666 7.35
      vertex -7.439 -0.732666 0
    endloop
  endfacet
  facet normal -0.989176 -0.146734 0
    outer loop
      vertex -7.33136 -1.4583 0
      vertex -7.33136 -1.4583 7.35
      vertex -7.439 -0.732666 7.35
    endloop
  endfacet
  facet normal -0.970032 -0.242978 0
    outer loop
      vertex -7.15312 -2.16988 0
      vertex -7.33136 -1.4583 7.35
      vertex -7.33136 -1.4583 0
    endloop
  endfacet
  facet normal -0.970032 -0.242978 0
    outer loop
      vertex -7.15312 -2.16988 0
      vertex -7.15312 -2.16988 7.35
      vertex -7.33136 -1.4583 7.35
    endloop
  endfacet
  facet normal -0.941542 -0.336895 0
    outer loop
      vertex -6.90599 -2.86055 0
      vertex -7.15312 -2.16988 7.35
      vertex -7.15312 -2.16988 0
    endloop
  endfacet
  facet normal -0.941542 -0.336895 0
    outer loop
      vertex -6.90599 -2.86055 0
      vertex -6.90599 -2.86055 7.35
      vertex -7.15312 -2.16988 7.35
    endloop
  endfacet
  facet normal -0.903993 -0.427547 0
    outer loop
      vertex -6.59236 -3.52368 0
      vertex -6.90599 -2.86055 7.35
      vertex -6.90599 -2.86055 0
    endloop
  endfacet
  facet normal -0.903993 -0.427547 0
    outer loop
      vertex -6.59236 -3.52368 0
      vertex -6.59236 -3.52368 7.35
      vertex -6.90599 -2.86055 7.35
    endloop
  endfacet
  facet normal -0.857727 -0.514105 0
    outer loop
      vertex -6.21523 -4.15288 0
      vertex -6.59236 -3.52368 7.35
      vertex -6.59236 -3.52368 0
    endloop
  endfacet
  facet normal -0.857727 -0.514105 0
    outer loop
      vertex -6.21523 -4.15288 0
      vertex -6.21523 -4.15288 7.35
      vertex -6.59236 -3.52368 7.35
    endloop
  endfacet
  facet normal -0.803201 -0.595708 0
    outer loop
      vertex -5.77824 -4.74208 0
      vertex -6.21523 -4.15288 7.35
      vertex -6.21523 -4.15288 0
    endloop
  endfacet
  facet normal -0.803201 -0.595708 0
    outer loop
      vertex -5.77824 -4.74208 0
      vertex -5.77824 -4.74208 7.35
      vertex -6.21523 -4.15288 7.35
    endloop
  endfacet
  facet normal -0.740949 -0.671561 0
    outer loop
      vertex -5.28561 -5.28561 0
      vertex -5.77824 -4.74208 7.35
      vertex -5.77824 -4.74208 0
    endloop
  endfacet
  facet normal -0.740949 -0.671561 0
    outer loop
      vertex -5.28561 -5.28561 0
      vertex -5.28561 -5.28561 7.35
      vertex -5.77824 -4.74208 7.35
    endloop
  endfacet
  facet normal -0.671561 -0.740949 0
    outer loop
      vertex -4.74208 -5.77824 0
      vertex -5.28561 -5.28561 7.35
      vertex -5.28561 -5.28561 0
    endloop
  endfacet
  facet normal -0.671561 -0.740949 0
    outer loop
      vertex -4.74208 -5.77824 0
      vertex -4.74208 -5.77824 7.35
      vertex -5.28561 -5.28561 7.35
    endloop
  endfacet
  facet normal -0.595708 -0.803201 0
    outer loop
      vertex -4.15288 -6.21523 0
      vertex -4.74208 -5.77824 7.35
      vertex -4.74208 -5.77824 0
    endloop
  endfacet
  facet normal -0.595708 -0.803201 0
    outer loop
      vertex -4.15288 -6.21523 0
      vertex -4.15288 -6.21523 7.35
      vertex -4.74208 -5.77824 7.35
    endloop
  endfacet
  facet normal -0.514105 -0.857727 0
    outer loop
      vertex -3.52368 -6.59236 0
      vertex -4.15288 -6.21523 7.35
      vertex -4.15288 -6.21523 0
    endloop
  endfacet
  facet normal -0.514105 -0.857727 0
    outer loop
      vertex -3.52368 -6.59236 0
      vertex -3.52368 -6.59236 7.35
      vertex -4.15288 -6.21523 7.35
    endloop
  endfacet
  facet normal -0.427552 -0.903991 0
    outer loop
      vertex -3.2648 -6.7148 0
      vertex -3.52368 -6.59236 7.35
      vertex -3.52368 -6.59236 0
    endloop
  endfacet
  facet normal -0.427552 -0.903991 0
    outer loop
      vertex -3.2648 -6.7148 0
      vertex -3.2648 -6.7148 7.35
      vertex -3.52368 -6.59236 7.35
    endloop
  endfacet
  facet normal -0.982812 0.184608 0
    outer loop
      vertex -3.92313 -10.2196 0
      vertex -3.2648 -6.7148 7.35
      vertex -3.2648 -6.7148 0
    endloop
  endfacet
  facet normal -0.982812 0.184608 0
    outer loop
      vertex -3.92313 -10.2196 0
      vertex -3.92313 -10.2196 7.35
      vertex -3.2648 -6.7148 7.35
    endloop
  endfacet
  facet normal -0.989176 0.146733 0
    outer loop
      vertex -3.98073 -10.6079 0
      vertex -3.92313 -10.2196 7.35
      vertex -3.92313 -10.2196 0
    endloop
  endfacet
  facet normal -0.989176 0.146733 0
    outer loop
      vertex -3.98073 -10.6079 0
      vertex -3.98073 -10.6079 7.35
      vertex -3.92313 -10.2196 7.35
    endloop
  endfacet
  facet normal -0.998795 0.0490864 0
    outer loop
      vertex -4 -11 0
      vertex -3.98073 -10.6079 7.35
      vertex -3.98073 -10.6079 0
    endloop
  endfacet
  facet normal -0.998795 0.0490864 0
    outer loop
      vertex -4 -11 0
      vertex -4 -11 7.35
      vertex -3.98073 -10.6079 7.35
    endloop
  endfacet
  facet normal -0.998795 -0.0490864 0
    outer loop
      vertex -3.98073 -11.3921 0
      vertex -4 -11 7.35
      vertex -4 -11 0
    endloop
  endfacet
  facet normal -0.998795 -0.0490864 0
    outer loop
      vertex -3.98073 -11.3921 0
      vertex -3.98073 -11.3921 7.35
      vertex -4 -11 7.35
    endloop
  endfacet
  facet normal -0.989171 -0.14677 0
    outer loop
      vertex -3.92313 -11.7803 0
      vertex -3.98073 -11.3921 7.35
      vertex -3.98073 -11.3921 0
    endloop
  endfacet
  facet normal -0.989171 -0.14677 0
    outer loop
      vertex -3.92313 -11.7803 0
      vertex -3.92313 -11.7803 7.35
      vertex -3.98073 -11.3921 7.35
    endloop
  endfacet
  facet normal -0.970041 -0.242943 0
    outer loop
      vertex -3.82776 -12.1611 0
      vertex -3.92313 -11.7803 7.35
      vertex -3.92313 -11.7803 0
    endloop
  endfacet
  facet normal -0.970041 -0.242943 0
    outer loop
      vertex -3.82776 -12.1611 0
      vertex -3.82776 -12.1611 7.35
      vertex -3.92313 -11.7803 7.35
    endloop
  endfacet
  facet normal -0.94154 -0.336901 0
    outer loop
      vertex -3.69551 -12.5307 0
      vertex -3.82776 -12.1611 7.35
      vertex -3.82776 -12.1611 0
    endloop
  endfacet
  facet normal -0.94154 -0.336901 0
    outer loop
      vertex -3.69551 -12.5307 0
      vertex -3.69551 -12.5307 7.35
      vertex -3.82776 -12.1611 7.35
    endloop
  endfacet
  facet normal -0.904014 -0.427503 0
    outer loop
      vertex -3.52768 -12.8856 0
      vertex -3.69551 -12.5307 7.35
      vertex -3.69551 -12.5307 0
    endloop
  endfacet
  facet normal -0.904014 -0.427503 0
    outer loop
      vertex -3.52768 -12.8856 0
      vertex -3.52768 -12.8856 7.35
      vertex -3.69551 -12.5307 7.35
    endloop
  endfacet
  facet normal -0.857729 -0.514102 0
    outer loop
      vertex -3.32587 -13.2223 0
      vertex -3.52768 -12.8856 7.35
      vertex -3.52768 -12.8856 0
    endloop
  endfacet
  facet normal -0.857729 -0.514102 0
    outer loop
      vertex -3.32587 -13.2223 0
      vertex -3.32587 -13.2223 7.35
      vertex -3.52768 -12.8856 7.35
    endloop
  endfacet
  facet normal -0.803223 -0.595679 0
    outer loop
      vertex -3.09204 -13.5376 0
      vertex -3.32587 -13.2223 7.35
      vertex -3.32587 -13.2223 0
    endloop
  endfacet
  facet normal -0.803223 -0.595679 0
    outer loop
      vertex -3.09204 -13.5376 0
      vertex -3.09204 -13.5376 7.35
      vertex -3.32587 -13.2223 7.35
    endloop
  endfacet
  facet normal -0.74087 -0.671649 0
    outer loop
      vertex -2.82841 -13.8284 0
      vertex -3.09204 -13.5376 7.35
      vertex -3.09204 -13.5376 0
    endloop
  endfacet
  facet normal -0.74087 -0.671649 0
    outer loop
      vertex -2.82841 -13.8284 0
      vertex -2.82841 -13.8284 7.35
      vertex -3.09204 -13.5376 7.35
    endloop
  endfacet
  facet normal -0.671556 -0.740954 0
    outer loop
      vertex -2.53757 -14.092 0
      vertex -2.82841 -13.8284 7.35
      vertex -2.82841 -13.8284 0
    endloop
  endfacet
  facet normal -0.671556 -0.740954 0
    outer loop
      vertex -2.53757 -14.092 0
      vertex -2.53757 -14.092 7.35
      vertex -2.82841 -13.8284 7.35
    endloop
  endfacet
  facet normal -0.595794 -0.803137 0
    outer loop
      vertex -2.22227 -14.3259 0
      vertex -2.53757 -14.092 7.35
      vertex -2.53757 -14.092 0
    endloop
  endfacet
  facet normal -0.595794 -0.803137 0
    outer loop
      vertex -2.22227 -14.3259 0
      vertex -2.22227 -14.3259 7.35
      vertex -2.53757 -14.092 7.35
    endloop
  endfacet
  facet normal -0.514084 -0.85774 0
    outer loop
      vertex -1.88557 -14.5277 0
      vertex -2.22227 -14.3259 7.35
      vertex -2.22227 -14.3259 0
    endloop
  endfacet
  facet normal -0.514084 -0.85774 0
    outer loop
      vertex -1.88557 -14.5277 0
      vertex -1.88557 -14.5277 7.35
      vertex -2.22227 -14.3259 7.35
    endloop
  endfacet
  facet normal -0.427499 -0.904016 0
    outer loop
      vertex -1.53073 -14.6955 0
      vertex -1.88557 -14.5277 7.35
      vertex -1.88557 -14.5277 0
    endloop
  endfacet
  facet normal -0.427499 -0.904016 0
    outer loop
      vertex -1.53073 -14.6955 0
      vertex -1.53073 -14.6955 7.35
      vertex -1.88557 -14.5277 7.35
    endloop
  endfacet
  facet normal -0.337014 -0.9415 0
    outer loop
      vertex -1.16113 -14.8278 0
      vertex -1.53073 -14.6955 7.35
      vertex -1.53073 -14.6955 0
    endloop
  endfacet
  facet normal -0.337014 -0.9415 0
    outer loop
      vertex -1.16113 -14.8278 0
      vertex -1.16113 -14.8278 7.35
      vertex -1.53073 -14.6955 7.35
    endloop
  endfacet
  facet normal -0.242787 -0.97008 0
    outer loop
      vertex -0.78035 -14.9231 0
      vertex -1.16113 -14.8278 7.35
      vertex -1.16113 -14.8278 0
    endloop
  endfacet
  facet normal -0.242787 -0.97008 0
    outer loop
      vertex -0.78035 -14.9231 0
      vertex -0.78035 -14.9231 7.35
      vertex -1.16113 -14.8278 7.35
    endloop
  endfacet
  facet normal -0.146737 -0.989176 0
    outer loop
      vertex -0.392059 -14.9807 0
      vertex -0.78035 -14.9231 7.35
      vertex -0.78035 -14.9231 0
    endloop
  endfacet
  facet normal -0.146737 -0.989176 0
    outer loop
      vertex -0.392059 -14.9807 0
      vertex -0.392059 -14.9807 7.35
      vertex -0.78035 -14.9231 7.35
    endloop
  endfacet
  facet normal -0.0491677 -0.998791 0
    outer loop
      vertex 0 -15 0
      vertex -0.392059 -14.9807 7.35
      vertex -0.392059 -14.9807 0
    endloop
  endfacet
  facet normal -0.0491677 -0.998791 0
    outer loop
      vertex 0 -15 0
      vertex 0 -15 7.35
      vertex -0.392059 -14.9807 7.35
    endloop
  endfacet
  facet normal 0.0491677 -0.998791 0
    outer loop
      vertex 0.392059 -14.9807 0
      vertex 0 -15 7.35
      vertex 0 -15 0
    endloop
  endfacet
  facet normal 0.0491677 -0.998791 0
    outer loop
      vertex 0.392059 -14.9807 0
      vertex 0.392059 -14.9807 7.35
      vertex 0 -15 7.35
    endloop
  endfacet
endsolid OpenSCAD_Model
